<?xml version="1.0" encoding="UTF-8" standalone="no"?>
<!-- Created with Inkscape (http://www.inkscape.org/) -->

<svg
   version="1.1"
   id="svg1959"
   xml:space="preserve"
   width="682.66669"
   height="682.66669"
   viewBox="0 0 682.66669 682.66669"
   xmlns="http://www.w3.org/2000/svg"
   xmlns:svg="http://www.w3.org/2000/svg"><defs
     id="defs1963"><clipPath
       clipPathUnits="userSpaceOnUse"
       id="clipPath1973"><path
         d="M 0,512 H 512 V 0 H 0 Z"
         id="path1971" /></clipPath></defs><g
     id="g1965"
     transform="matrix(1.3333333,0,0,-1.3333333,0,682.66667)"><g
       id="g1967"><g
         id="g1969"
         clip-path="url(#clipPath1973)"><g
           id="g1975"
           transform="translate(214.77,182.519)"><path
             d="m 0,0 h -28.176 c -2.999,0 -5.43,-2.431 -5.43,-5.431 v -15.947 c 0,-22.727 18.594,-41.321 41.321,-41.321 h 28.177 c 2.998,0 5.429,2.43 5.429,5.43 v 15.948 C 41.321,-18.595 22.727,0 0,0"
             style="fill:#ffd500;fill-opacity:1;fill-rule:nonzero;stroke:none"
             id="path1977" /></g><g
           id="g1979"
           transform="translate(210.4004,161.1406)"><path
             d="m 0,0 v 15.948 c 0,2.879 2.242,5.228 5.074,5.412 -0.235,0.004 -0.468,0.018 -0.704,0.018 h -28.177 c -2.999,0 -5.43,-2.431 -5.43,-5.43 V 0 c 0,-22.726 18.594,-41.321 41.321,-41.321 H 40.26 c 0.121,0 0.239,0.01 0.357,0.018 C 18.213,-40.922 0,-22.49 0,0"
             style="fill:#eab900;fill-opacity:1;fill-rule:nonzero;stroke:none"
             id="path1981" /></g><g
           id="g1983"
           transform="translate(289.936,359.248)"><path
             d="m 0,0 h 23.077 c 2.457,0 4.448,-1.991 4.448,-4.448 V -17.51 c 0,-18.614 -15.23,-33.844 -33.844,-33.844 h -23.078 c -2.457,0 -4.448,1.991 -4.448,4.448 v 13.062 C -33.845,-15.23 -18.615,0 0,0"
             style="fill:#ffd500;fill-opacity:1;fill-rule:nonzero;stroke:none"
             id="path1985" /></g><g
           id="g1987"
           transform="translate(280.5551,312.3423)"><path
             d="m 0,0 v 13.062 c 0,18.243 14.632,33.226 32.738,33.816 -0.094,0.006 -0.183,0.028 -0.28,0.028 H 9.381 c -18.615,0 -33.845,-15.23 -33.845,-33.844 V 0 c 0,-2.457 1.991,-4.448 4.447,-4.448 H 3.062 c 0.371,0 0.738,0.016 1.106,0.028 C 1.845,-4.272 0,-2.361 0,0"
             style="fill:#eab900;fill-opacity:1;fill-rule:nonzero;stroke:none"
             id="path1989" /></g><g
           id="g1991"
           transform="translate(263.0962,420.5)"><path
             d="m 0,0 c -4.03,3.475 -9.979,3.475 -14.01,0 -9.757,-8.411 -15.937,-20.855 -15.937,-34.749 0,-13.893 6.18,-26.337 15.937,-34.748 4.031,-3.474 9.98,-3.474 14.01,0 9.757,8.411 15.937,20.855 15.937,34.748 C 15.937,-20.855 9.757,-8.411 0,0"
             style="fill:#ffd500;fill-opacity:1;fill-rule:nonzero;stroke:none"
             id="path1993" /></g><g
           id="g1995"
           transform="translate(253.9184,385.7519)"><path
             d="m 0,0 c 0,12.211 4.776,23.3 12.558,31.517 -1.073,1.132 -2.2,2.213 -3.38,3.231 -4.031,3.475 -9.98,3.475 -14.01,0 C -14.589,26.337 -20.769,13.894 -20.769,0 c 0,-13.894 6.18,-26.338 15.937,-34.749 4.03,-3.474 9.979,-3.474 14.01,0 1.18,1.019 2.307,2.099 3.38,3.231 C 4.776,-23.3 0,-12.211 0,0"
             style="fill:#eab900;fill-opacity:1;fill-rule:nonzero;stroke:none"
             id="path1997" /></g><g
           id="g1999"
           transform="translate(222.2466,359.2485)"><path
             d="m 0,0 h -23.078 c -2.456,0 -4.447,-1.991 -4.447,-4.448 V -17.51 c 0,-18.615 15.23,-33.844 33.844,-33.844 h 23.078 c 2.457,0 4.448,1.991 4.448,4.447 v 13.063 C 33.845,-15.23 18.615,0 0,0"
             style="fill:#ffd500;fill-opacity:1;fill-rule:nonzero;stroke:none"
             id="path2001" /></g><g
           id="g2003"
           transform="translate(218.668,341.7383)"><path
             d="m 0,0 v 13.062 c 0,2.358 1.836,4.282 4.156,4.434 -0.193,0.003 -0.384,0.014 -0.577,0.014 h -23.078 c -2.457,0 -4.448,-1.991 -4.448,-4.448 V 0 c 0,-18.614 15.23,-33.844 33.844,-33.844 h 23.079 c 0.098,0 0.194,0.009 0.291,0.014 C 14.917,-33.517 0,-18.42 0,0"
             style="fill:#eab900;fill-opacity:1;fill-rule:nonzero;stroke:none"
             id="path2005" /></g><g
           id="g2007"
           transform="translate(297.4126,307.917)"><path
             d="m 0,0 h 28.176 c 2.999,0 5.43,-2.431 5.43,-5.43 v -15.948 c 0,-22.726 -18.594,-41.321 -41.321,-41.321 h -28.177 c -2.999,0 -5.429,2.431 -5.429,5.43 v 15.948 C -41.321,-18.595 -22.727,0 0,0"
             style="fill:#ffd500;fill-opacity:1;fill-rule:nonzero;stroke:none"
             id="path2009" /></g><g
           id="g2011"
           transform="translate(285.9594,250.6484)"><path
             d="m 0,0 v 15.948 c 0,22.273 17.864,40.565 39.971,41.286 -0.116,0.008 -0.225,0.035 -0.342,0.035 H 11.453 c -22.726,0 -41.321,-18.595 -41.321,-41.321 V 0 c 0,-3 2.431,-5.431 5.43,-5.431 H 3.738 c 0.453,0 0.902,0.02 1.351,0.035 C 2.252,-5.216 0,-2.882 0,0"
             style="fill:#eab900;fill-opacity:1;fill-rule:nonzero;stroke:none"
             id="path2013" /></g><g
           id="g2015"
           transform="translate(297.4126,245.2177)"><path
             d="m 0,0 h 28.176 c 2.999,0 5.43,-2.431 5.43,-5.43 v -15.948 c 0,-22.726 -18.594,-41.321 -41.321,-41.321 h -28.177 c -2.999,0 -5.429,2.431 -5.429,5.43 v 15.948 C -41.321,-18.594 -22.727,0 0,0"
             style="fill:#ffd500;fill-opacity:1;fill-rule:nonzero;stroke:none"
             id="path2017" /></g><g
           id="g2019"
           transform="translate(285.9594,187.9492)"><path
             d="m 0,0 v 15.948 c 0,22.273 17.864,40.565 39.971,41.286 -0.116,0.008 -0.225,0.035 -0.342,0.035 H 11.453 c -22.726,0 -41.321,-18.595 -41.321,-41.321 V 0 c 0,-3 2.431,-5.43 5.43,-5.43 H 3.738 c 0.453,0 0.902,0.019 1.351,0.034 C 2.252,-5.216 0,-2.882 0,0"
             style="fill:#eab900;fill-opacity:1;fill-rule:nonzero;stroke:none"
             id="path2021" /></g><g
           id="g2023"
           transform="translate(297.4126,182.5185)"><path
             d="m 0,0 h 28.176 c 2.999,0 5.43,-2.431 5.43,-5.43 v -15.948 c 0,-22.726 -18.594,-41.321 -41.321,-41.321 h -28.177 c -2.999,0 -5.429,2.431 -5.429,5.43 v 15.948 C -41.321,-18.594 -22.727,0 0,0"
             style="fill:#ffd500;fill-opacity:1;fill-rule:nonzero;stroke:none"
             id="path2025" /></g><g
           id="g2027"
           transform="translate(285.9594,125.2505)"><path
             d="m 0,0 v 15.947 c 0,22.274 17.864,40.566 39.971,41.287 -0.116,0.007 -0.225,0.035 -0.342,0.035 H 11.453 c -22.726,0 -41.321,-18.595 -41.321,-41.322 V 0 c 0,-3 2.431,-5.431 5.43,-5.431 H 3.738 c 0.453,0 0.902,0.02 1.351,0.035 C 2.252,-5.216 0,-2.883 0,0"
             style="fill:#eab900;fill-opacity:1;fill-rule:nonzero;stroke:none"
             id="path2029" /></g><g
           id="g2031"
           transform="translate(214.77,307.4453)"><path
             d="m 0,0 h -28.176 c -2.999,0 -5.43,-2.431 -5.43,-5.43 v -15.948 c 0,-22.726 18.594,-41.321 41.321,-41.321 h 28.177 c 2.998,0 5.429,2.431 5.429,5.43 v 15.948 C 41.321,-18.594 22.727,0 0,0"
             style="fill:#ffd500;fill-opacity:1;fill-rule:nonzero;stroke:none"
             id="path2033" /></g><g
           id="g2035"
           transform="translate(210.4004,286.0674)"><path
             d="m 0,0 v 15.948 c 0,2.879 2.242,5.228 5.074,5.412 -0.235,0.004 -0.468,0.018 -0.704,0.018 h -28.177 c -2.999,0 -5.43,-2.431 -5.43,-5.43 V 0 c 0,-22.727 18.594,-41.321 41.321,-41.321 H 40.26 c 0.121,0 0.239,0.01 0.357,0.018 C 18.213,-40.922 0,-22.49 0,0"
             style="fill:#eab900;fill-opacity:1;fill-rule:nonzero;stroke:none"
             id="path2037" /></g><g
           id="g2039"
           transform="translate(427.145,120.5283)"><path
             d="m 0,0 c -3.306,-4.163 -9.521,-4.483 -13.28,-0.724 l -293.969,293.97 c -3.759,3.759 -3.439,9.975 0.724,13.28 85.651,68.008 210.566,62.426 289.758,-16.766 C 62.427,210.567 68.008,85.652 0,0 m -35.583,-35.583 c -85.651,-68.007 -210.566,-62.425 -289.758,16.767 -79.193,79.193 -84.774,204.108 -16.767,289.759 3.306,4.163 9.522,4.483 13.28,0.724 l 293.97,-293.969 c 3.758,-3.76 3.439,-9.975 -0.725,-13.281 m -135.471,419.556 c -137.243,0 -248.501,-111.258 -248.501,-248.501 0,-137.243 111.258,-248.501 248.501,-248.501 137.243,0 248.501,111.258 248.501,248.501 0,137.243 -111.258,248.501 -248.501,248.501"
             style="fill:#ff7f87;fill-opacity:1;fill-rule:nonzero;stroke:none"
             id="path2041" /></g><g
           id="g2043"
           transform="translate(128.0464,79.3022)"><path
             d="m 0,0 c -9.181,6.669 -17.964,14.132 -26.243,22.41 -79.192,79.193 -84.774,204.108 -16.766,289.759 2.689,3.388 7.306,4.23 10.958,2.401 6.484,9.705 13.635,18.924 21.384,27.599 0.326,2.12 1.413,4.132 3.241,5.583 2.426,1.927 4.888,3.787 7.376,5.595 39.708,39.286 92.589,65.273 151.428,70.753 -7.683,0.716 -15.463,1.099 -23.333,1.099 -137.243,0 -248.501,-111.258 -248.501,-248.501 0,-137.243 111.258,-248.501 248.501,-248.501 7.87,0 15.65,0.383 23.333,1.098 C 92.563,-65.226 39.702,-39.259 0,0"
             style="fill:#ff636e;fill-opacity:1;fill-rule:nonzero;stroke:none"
             id="path2045" /></g><g
           id="g2047"
           transform="translate(214.77,245.2177)"><path
             d="m 0,0 h -28.176 c -2.999,0 -5.43,-2.431 -5.43,-5.43 v -15.948 c 0,-22.726 18.594,-41.321 41.321,-41.321 h 28.177 c 2.998,0 5.429,2.431 5.429,5.43 v 15.948 C 41.321,-18.594 22.727,0 0,0"
             style="fill:#ffd500;fill-opacity:1;fill-rule:nonzero;stroke:none"
             id="path2049" /></g><g
           id="g2051"
           transform="translate(210.4004,223.8398)"><path
             d="m 0,0 v 15.948 c 0,2.879 2.242,5.228 5.074,5.412 -0.235,0.004 -0.468,0.018 -0.704,0.018 h -28.177 c -2.999,0 -5.43,-2.431 -5.43,-5.43 V 0 c 0,-22.727 18.594,-41.321 41.321,-41.321 H 40.26 c 0.121,0 0.239,0.01 0.357,0.018 C 18.213,-40.922 0,-22.49 0,0"
             style="fill:#eab900;fill-opacity:1;fill-rule:nonzero;stroke:none"
             id="path2053" /></g><g
           id="g2055"
           transform="translate(256.0005,233.9121)"><path
             d="M 0,0 V -157.676"
             style="fill:none;stroke:#000000;stroke-width:15;stroke-linecap:round;stroke-linejoin:round;stroke-miterlimit:10;stroke-dasharray:none;stroke-opacity:1"
             id="path2057" /></g><g
           id="g2059"
           transform="translate(256.0005,324.4863)"><path
             d="M 0,0 V -45.308"
             style="fill:none;stroke:#000000;stroke-width:15;stroke-linecap:round;stroke-linejoin:round;stroke-miterlimit:10;stroke-dasharray:none;stroke-opacity:1"
             id="path2061" /></g><g
           id="g2063"
           transform="translate(214.6792,182.519)"><path
             d="m 0,0 h -28.176 c -2.999,0 -5.431,-2.431 -5.431,-5.431 v -15.947 c 0,-22.727 18.595,-41.321 41.321,-41.321 h 28.177 c 2.999,0 5.43,2.43 5.43,5.43 v 15.948 C 41.321,-18.595 22.727,0 0,0 Z"
             style="fill:none;stroke:#000000;stroke-width:15;stroke-linecap:round;stroke-linejoin:round;stroke-miterlimit:10;stroke-dasharray:none;stroke-opacity:1"
             id="path2065" /></g><g
           id="g2067"
           transform="translate(214.6792,245.2177)"><path
             d="m 0,0 h -28.176 c -2.999,0 -5.431,-2.431 -5.431,-5.43 v -15.948 c 0,-22.726 18.595,-41.321 41.321,-41.321 h 28.177 c 2.999,0 5.43,2.431 5.43,5.43 v 15.948 C 41.321,-18.594 22.727,0 0,0 Z"
             style="fill:none;stroke:#000000;stroke-width:15;stroke-linecap:round;stroke-linejoin:round;stroke-miterlimit:10;stroke-dasharray:none;stroke-opacity:1"
             id="path2069" /></g><g
           id="g2071"
           transform="translate(289.8442,359.248)"><path
             d="m 0,0 h 23.078 c 2.457,0 4.448,-1.991 4.448,-4.448 V -17.51 c 0,-18.614 -15.23,-33.844 -33.844,-33.844 h -23.078 c -2.457,0 -4.448,1.991 -4.448,4.448 v 13.062 C -33.844,-15.23 -18.614,0 0,0 Z"
             style="fill:none;stroke:#000000;stroke-width:15;stroke-linecap:round;stroke-linejoin:round;stroke-miterlimit:10;stroke-dasharray:none;stroke-opacity:1"
             id="path2073" /></g><g
           id="g2075"
           transform="translate(263.0044,420.5)"><path
             d="m 0,0 c -4.029,3.475 -9.979,3.475 -14.009,0 -9.757,-8.411 -15.937,-20.855 -15.937,-34.749 0,-13.893 6.18,-26.337 15.937,-34.748 4.03,-3.474 9.98,-3.474 14.009,0 9.758,8.411 15.938,20.855 15.938,34.748 C 15.938,-20.855 9.758,-8.411 0,0 Z"
             style="fill:none;stroke:#000000;stroke-width:15;stroke-linecap:round;stroke-linejoin:round;stroke-miterlimit:10;stroke-dasharray:none;stroke-opacity:1"
             id="path2077" /></g><g
           id="g2079"
           transform="translate(251.5522,307.894)"><path
             d="M 0,0 C 2.457,0 4.448,1.991 4.448,4.448 V 17.51 c 0,18.614 -15.23,33.844 -33.844,33.844 h -23.078 c -2.457,0 -4.448,-1.991 -4.448,-4.448 V 33.844 c 0,-0.986 0.052,-1.96 0.135,-2.925 L -26.003,0.136 C -25.038,0.052 -24.064,0 -23.078,0 Z"
             style="fill:none;stroke:#000000;stroke-width:15;stroke-linecap:round;stroke-linejoin:round;stroke-miterlimit:10;stroke-dasharray:none;stroke-opacity:1"
             id="path2081" /></g><g
           id="g2083"
           transform="translate(330.9282,286.539)"><path
             d="m 0,0 v 15.947 c 0,3 -2.432,5.431 -5.431,5.431 h -28.175 c -19.356,0 -35.705,-13.49 -40.132,-31.529 l 31.171,-31.17 h 1.246 C -18.595,-41.321 0,-22.727 0,0 Z"
             style="fill:none;stroke:#000000;stroke-width:15;stroke-linecap:round;stroke-linejoin:round;stroke-miterlimit:10;stroke-dasharray:none;stroke-opacity:1"
             id="path2085" /></g><g
           id="g2087"
           transform="translate(261.4301,182.5185)"><path
             d="m 0,0 h 28.177 c 5.407,0 10.576,1.063 15.321,2.975 L 1.811,44.662 C -2.75,38.021 -5.43,29.999 -5.43,21.378 V 5.431 C -5.43,2.431 -2.999,0 0,0 Z"
             style="fill:none;stroke:#000000;stroke-width:15;stroke-linecap:round;stroke-linejoin:round;stroke-miterlimit:10;stroke-dasharray:none;stroke-opacity:1"
             id="path2089" /></g><g
           id="g2091"
           transform="translate(330.9282,239.7876)"><path
             d="m 0,0 c 0,3 -2.432,5.43 -5.431,5.43 h -28.175 c -2.788,0 -5.51,-0.283 -8.146,-0.815 L -3.85,-33.288 c 2.463,5.281 3.85,11.155 3.85,17.34 z"
             style="fill:none;stroke:#000000;stroke-width:15;stroke-linecap:round;stroke-linejoin:round;stroke-miterlimit:10;stroke-dasharray:none;stroke-opacity:1"
             id="path2093" /></g><g
           id="g2095"
           transform="translate(183.4477,306.9741)"><path
             d="m 0,0 c -1.433,-0.978 -2.375,-2.622 -2.375,-4.488 v -15.947 c 0,-22.727 18.594,-41.321 41.321,-41.321 h 22.81 z"
             style="fill:none;stroke:#000000;stroke-width:15;stroke-linecap:round;stroke-linejoin:round;stroke-miterlimit:10;stroke-dasharray:none;stroke-opacity:1"
             id="path2097" /></g><g
           id="g2099"
           transform="translate(227.8345,305.7441)"><path
             d="M 0,0 25.993,-25.993 C 21.866,-13.805 12.188,-4.126 0,0 Z"
             style="fill:none;stroke:#000000;stroke-width:15;stroke-linecap:round;stroke-linejoin:round;stroke-miterlimit:10;stroke-dasharray:none;stroke-opacity:1"
             id="path2101" /></g><g
           id="g2103"
           transform="translate(319.0307,132.2221)"><path
             d="M 0,0 C 6.986,7.111 11.445,16.712 11.856,27.312 L -11.128,50.297 H -21.709 C -44.436,50.297 -63.03,31.702 -63.03,8.976 V -6.972 c 0,-2.999 2.43,-5.43 5.429,-5.43 h 24.769"
             style="fill:none;stroke:#000000;stroke-width:15;stroke-linecap:round;stroke-linejoin:round;stroke-miterlimit:10;stroke-dasharray:none;stroke-opacity:1"
             id="path2105" /></g><g
           id="g2107"
           transform="translate(427.0542,120.5283)"><path
             d="m 0,0 c -3.306,-4.163 -9.521,-4.483 -13.28,-0.724 l -293.97,293.97 c -3.759,3.759 -3.438,9.975 0.725,13.28 85.651,68.008 210.566,62.426 289.758,-16.767 C 62.427,210.567 68.008,85.651 0,0 Z m -35.583,-35.583 c -85.651,-68.007 -210.566,-62.425 -289.759,16.767 -79.192,79.192 -84.774,204.108 -16.766,289.759 3.305,4.163 9.521,4.483 13.28,0.724 l 293.97,-293.969 c 3.758,-3.76 3.439,-9.975 -0.725,-13.281 z M -6.112,321.32 c -43.878,38.971 -101.64,62.653 -164.942,62.653 -137.243,0 -248.501,-111.258 -248.501,-248.501 0,-137.243 111.258,-248.501 248.501,-248.501 137.243,0 248.501,111.258 248.501,248.501 0,61.343 -22.24,117.484 -59.08,160.83"
             style="fill:none;stroke:#000000;stroke-width:15;stroke-linecap:round;stroke-linejoin:round;stroke-miterlimit:10;stroke-dasharray:none;stroke-opacity:1"
             id="path2109" /></g></g></g></g></svg>
