<?xml version="1.0" encoding="UTF-8" standalone="no"?>
<!-- Created with Inkscape (http://www.inkscape.org/) -->

<svg
   version="1.1"
   id="svg1095"
   xml:space="preserve"
   width="682.66669"
   height="682.66669"
   viewBox="0 0 682.66669 682.66669"
   xmlns="http://www.w3.org/2000/svg"
   xmlns:svg="http://www.w3.org/2000/svg"><defs
     id="defs1099"><clipPath
       clipPathUnits="userSpaceOnUse"
       id="clipPath1117"><path
         d="M 0,512 H 512 V 0 H 0 Z"
         id="path1115" /></clipPath></defs><g
     id="g1101"
     transform="matrix(1.3333333,0,0,-1.3333333,0,682.66667)"><g
       id="g1103"
       transform="translate(256.0005,233.9121)"><path
         d="M 0,0 V -157.676"
         style="fill:none;stroke:#000000;stroke-width:15;stroke-linecap:round;stroke-linejoin:round;stroke-miterlimit:10;stroke-dasharray:none;stroke-opacity:1"
         id="path1105" /></g><g
       id="g1107"
       transform="translate(256.0005,324.4863)"><path
         d="M 0,0 V -45.308"
         style="fill:none;stroke:#000000;stroke-width:15;stroke-linecap:round;stroke-linejoin:round;stroke-miterlimit:10;stroke-dasharray:none;stroke-opacity:1"
         id="path1109" /></g><g
       id="g1111"><g
         id="g1113"
         clip-path="url(#clipPath1117)"><g
           id="g1119"
           transform="translate(214.6792,182.519)"><path
             d="m 0,0 h -28.176 c -2.999,0 -5.431,-2.431 -5.431,-5.431 v -15.947 c 0,-22.727 18.595,-41.321 41.321,-41.321 h 28.177 c 2.999,0 5.43,2.43 5.43,5.43 v 15.948 C 41.321,-18.595 22.727,0 0,0 Z"
             style="fill:none;stroke:#000000;stroke-width:15;stroke-linecap:round;stroke-linejoin:round;stroke-miterlimit:10;stroke-dasharray:none;stroke-opacity:1"
             id="path1121" /></g><g
           id="g1123"
           transform="translate(214.6792,245.2177)"><path
             d="m 0,0 h -28.176 c -2.999,0 -5.431,-2.431 -5.431,-5.43 v -15.948 c 0,-22.726 18.595,-41.321 41.321,-41.321 h 28.177 c 2.999,0 5.43,2.431 5.43,5.43 v 15.948 C 41.321,-18.594 22.727,0 0,0 Z"
             style="fill:none;stroke:#000000;stroke-width:15;stroke-linecap:round;stroke-linejoin:round;stroke-miterlimit:10;stroke-dasharray:none;stroke-opacity:1"
             id="path1125" /></g><g
           id="g1127"
           transform="translate(289.8442,359.248)"><path
             d="m 0,0 h 23.078 c 2.457,0 4.448,-1.991 4.448,-4.448 V -17.51 c 0,-18.614 -15.23,-33.844 -33.844,-33.844 h -23.078 c -2.457,0 -4.448,1.991 -4.448,4.448 v 13.062 C -33.844,-15.23 -18.614,0 0,0 Z"
             style="fill:none;stroke:#000000;stroke-width:15;stroke-linecap:round;stroke-linejoin:round;stroke-miterlimit:10;stroke-dasharray:none;stroke-opacity:1"
             id="path1129" /></g><g
           id="g1131"
           transform="translate(263.0044,420.5)"><path
             d="m 0,0 c -4.029,3.475 -9.979,3.475 -14.009,0 -9.757,-8.411 -15.937,-20.855 -15.937,-34.749 0,-13.893 6.18,-26.337 15.937,-34.748 4.03,-3.474 9.98,-3.474 14.009,0 9.758,8.411 15.938,20.855 15.938,34.748 C 15.938,-20.855 9.758,-8.411 0,0 Z"
             style="fill:none;stroke:#000000;stroke-width:15;stroke-linecap:round;stroke-linejoin:round;stroke-miterlimit:10;stroke-dasharray:none;stroke-opacity:1"
             id="path1133" /></g><g
           id="g1135"
           transform="translate(251.5522,307.894)"><path
             d="M 0,0 C 2.457,0 4.448,1.991 4.448,4.448 V 17.51 c 0,18.614 -15.23,33.844 -33.844,33.844 h -23.078 c -2.457,0 -4.448,-1.991 -4.448,-4.448 V 33.844 c 0,-0.986 0.052,-1.96 0.135,-2.925 L -26.003,0.136 C -25.038,0.052 -24.064,0 -23.078,0 Z"
             style="fill:none;stroke:#000000;stroke-width:15;stroke-linecap:round;stroke-linejoin:round;stroke-miterlimit:10;stroke-dasharray:none;stroke-opacity:1"
             id="path1137" /></g><g
           id="g1139"
           transform="translate(330.9282,286.539)"><path
             d="m 0,0 v 15.947 c 0,3 -2.432,5.431 -5.431,5.431 h -28.175 c -19.356,0 -35.705,-13.49 -40.132,-31.529 l 31.171,-31.17 h 1.246 C -18.595,-41.321 0,-22.727 0,0 Z"
             style="fill:none;stroke:#000000;stroke-width:15;stroke-linecap:round;stroke-linejoin:round;stroke-miterlimit:10;stroke-dasharray:none;stroke-opacity:1"
             id="path1141" /></g><g
           id="g1143"
           transform="translate(261.4301,182.5185)"><path
             d="m 0,0 h 28.177 c 5.407,0 10.576,1.063 15.321,2.975 L 1.811,44.662 C -2.75,38.021 -5.43,29.999 -5.43,21.378 V 5.431 C -5.43,2.431 -2.999,0 0,0 Z"
             style="fill:none;stroke:#000000;stroke-width:15;stroke-linecap:round;stroke-linejoin:round;stroke-miterlimit:10;stroke-dasharray:none;stroke-opacity:1"
             id="path1145" /></g><g
           id="g1147"
           transform="translate(330.9282,239.7876)"><path
             d="m 0,0 c 0,3 -2.432,5.43 -5.431,5.43 h -28.175 c -2.788,0 -5.51,-0.283 -8.146,-0.815 L -3.85,-33.288 c 2.463,5.281 3.85,11.155 3.85,17.34 z"
             style="fill:none;stroke:#000000;stroke-width:15;stroke-linecap:round;stroke-linejoin:round;stroke-miterlimit:10;stroke-dasharray:none;stroke-opacity:1"
             id="path1149" /></g><g
           id="g1151"
           transform="translate(183.4477,306.9741)"><path
             d="m 0,0 c -1.433,-0.978 -2.375,-2.622 -2.375,-4.488 v -15.947 c 0,-22.727 18.594,-41.321 41.321,-41.321 h 22.81 z"
             style="fill:none;stroke:#000000;stroke-width:15;stroke-linecap:round;stroke-linejoin:round;stroke-miterlimit:10;stroke-dasharray:none;stroke-opacity:1"
             id="path1153" /></g><g
           id="g1155"
           transform="translate(227.8345,305.7441)"><path
             d="M 0,0 25.993,-25.993 C 21.866,-13.805 12.188,-4.126 0,0 Z"
             style="fill:none;stroke:#000000;stroke-width:15;stroke-linecap:round;stroke-linejoin:round;stroke-miterlimit:10;stroke-dasharray:none;stroke-opacity:1"
             id="path1157" /></g><g
           id="g1159"
           transform="translate(319.0307,132.2221)"><path
             d="M 0,0 C 6.986,7.111 11.445,16.712 11.856,27.312 L -11.128,50.297 H -21.709 C -44.436,50.297 -63.03,31.702 -63.03,8.976 V -6.972 c 0,-2.999 2.43,-5.43 5.429,-5.43 h 24.769"
             style="fill:none;stroke:#000000;stroke-width:15;stroke-linecap:round;stroke-linejoin:round;stroke-miterlimit:10;stroke-dasharray:none;stroke-opacity:1"
             id="path1161" /></g><g
           id="g1163"
           transform="translate(427.0542,120.5283)"><path
             d="m 0,0 c -3.306,-4.163 -9.521,-4.483 -13.28,-0.724 l -293.97,293.97 c -3.759,3.759 -3.438,9.975 0.725,13.28 85.651,68.008 210.566,62.426 289.758,-16.767 C 62.427,210.567 68.008,85.651 0,0 Z m -35.583,-35.583 c -85.651,-68.007 -210.566,-62.425 -289.759,16.767 -79.192,79.192 -84.774,204.108 -16.766,289.759 3.305,4.163 9.521,4.483 13.28,0.724 l 293.97,-293.969 c 3.758,-3.76 3.439,-9.975 -0.725,-13.281 z M -6.112,321.32 c -43.878,38.971 -101.64,62.653 -164.942,62.653 -137.243,0 -248.501,-111.258 -248.501,-248.501 0,-137.243 111.258,-248.501 248.501,-248.501 137.243,0 248.501,111.258 248.501,248.501 0,61.343 -22.24,117.484 -59.08,160.83"
             style="fill:none;stroke:#000000;stroke-width:15;stroke-linecap:round;stroke-linejoin:round;stroke-miterlimit:10;stroke-dasharray:none;stroke-opacity:1"
             id="path1165" /></g></g></g></g></svg>
