<?xml version="1.0" encoding="UTF-8" standalone="no"?>
<!-- Created with Inkscape (http://www.inkscape.org/) -->

<svg
   version="1.1"
   id="svg3150"
   xml:space="preserve"
   width="682.66669"
   height="682.66669"
   viewBox="0 0 682.66669 682.66669"
   xmlns="http://www.w3.org/2000/svg"
   xmlns:svg="http://www.w3.org/2000/svg"><defs
     id="defs3154"><clipPath
       clipPathUnits="userSpaceOnUse"
       id="clipPath3164"><path
         d="M 0,512 H 512 V 0 H 0 Z"
         id="path3162" /></clipPath></defs><g
     id="g3156"
     transform="matrix(1.3333333,0,0,-1.3333333,0,682.66667)"><g
       id="g3158"><g
         id="g3160"
         clip-path="url(#clipPath3164)"><g
           id="g3166"
           transform="translate(479.2549,310.5972)"><path
             d="m 0,0 c -0.316,0.376 -0.643,0.738 -0.972,1.098 4.262,2.041 8.294,4.78 11.933,8.235 16.689,15.845 19.066,42.066 5.48,60.64 -15.96,21.818 -46.736,25.261 -67.074,8.151 -3.061,-2.575 -5.704,-5.464 -7.921,-8.579 -0.298,0.386 -0.598,0.769 -0.916,1.145 -12.316,14.641 -34.169,16.525 -48.809,4.208 -6.184,-5.202 -10.087,-12.105 -11.608,-19.446 -1.372,-6.624 -5.494,-12.253 -11.346,-15.642 -1.723,-0.997 -3.382,-2.157 -4.958,-3.483 -10.503,-8.836 -14.433,-22.578 -11.27,-35.046 0.6,-2.365 -0.236,-4.818 -2.106,-6.386 l -0.033,-0.028 c -4.306,-3.623 -7.287,-8.236 -8.89,-13.225 -5.083,-15.826 -13.977,-30.156 -26.697,-40.857 l -255.374,-213.742 20.609,-20.674 c 9.913,-11.339 27.124,-12.697 38.7,-2.959 l 231.748,194.961 c 12.719,10.7 28.36,17.01 44.822,19.31 5.19,0.725 10.244,2.872 14.552,6.495 0.011,0.01 0.022,0.018 0.032,0.028 1.866,1.574 4.425,1.978 6.654,0.982 11.742,-5.25 25.954,-3.731 36.458,5.106 1.575,1.325 3.002,2.761 4.279,4.288 4.341,5.186 10.593,8.284 17.353,8.502 7.494,0.241 14.962,2.906 21.146,8.108 C 10.433,-36.494 12.316,-14.641 0,0"
             style="fill:#95d528;fill-opacity:1;fill-rule:nonzero;stroke:none"
             id="path3168" /></g><g
           id="g3170"
           transform="translate(489.4121,327.623)"><path
             d="m 0,0 c 6.984,6.984 11.997,15.204 15.045,23.962 0.402,10.108 -2.459,20.369 -8.761,28.985 -15.96,21.818 -46.736,25.261 -67.074,8.151 -3.062,-2.575 -5.704,-5.464 -7.921,-8.579 -0.298,0.386 -0.599,0.77 -0.916,1.146 -12.316,14.64 -34.169,16.524 -48.81,4.208 -6.183,-5.203 -10.086,-12.105 -11.607,-19.447 -1.372,-6.624 -5.493,-12.253 -11.347,-15.642 -1.722,-0.997 -3.381,-2.157 -4.958,-3.483 -10.503,-8.836 -14.432,-22.578 -11.269,-35.046 0.599,-2.365 -0.236,-4.818 -2.107,-6.386 l -0.032,-0.028 c -4.306,-3.623 -7.287,-8.236 -8.89,-13.225 -5.083,-15.825 -13.977,-30.156 -26.697,-40.857 l -255.374,-213.741 20.609,-20.675 c 5.326,-6.092 12.76,-9.273 20.294,-9.43 7.204,2.704 13.946,6.917 19.693,12.663 l 235.752,235.752 c 8.991,8.991 21.103,15.427 35.024,18.611 6.884,1.574 13.374,4.399 19.196,8.331 19.926,-3.208 40.7,3.257 55.206,17.763 2.624,2.624 5.026,5.487 7.135,8.501 0.196,0.279 0.335,0.296 0.404,0.304 C -23.322,-16.488 -10.038,-10.039 0,0"
             style="fill:#7db723;fill-opacity:1;fill-rule:nonzero;stroke:none"
             id="path3172" /></g><g
           id="g3174"
           transform="translate(310.5967,479.2554)"><path
             d="m 0,0 c 0.377,-0.317 0.739,-0.644 1.098,-0.972 2.041,4.261 4.78,8.293 8.235,11.932 15.846,16.689 42.066,19.067 60.641,5.48 21.817,-15.959 25.26,-46.735 8.151,-67.073 -2.576,-3.062 -5.465,-5.704 -8.579,-7.922 0.385,-0.297 0.768,-0.598 1.145,-0.915 14.64,-12.316 16.525,-34.169 4.208,-48.81 -5.202,-6.183 -12.105,-10.087 -19.447,-11.608 -6.623,-1.371 -12.252,-5.493 -15.641,-11.346 -0.998,-1.723 -2.158,-3.382 -3.483,-4.957 -8.836,-10.504 -22.579,-14.434 -35.047,-11.271 -2.365,0.6 -4.818,-0.236 -6.386,-2.106 -0.009,-0.011 -0.018,-0.021 -0.028,-0.032 -3.623,-4.307 -8.236,-7.288 -13.225,-8.89 -15.825,-5.084 -30.156,-13.977 -40.856,-26.697 l -213.742,-255.374 -20.674,20.609 c -11.339,9.912 -12.698,27.124 -2.96,38.699 l 194.962,231.748 c 10.7,12.719 17.009,28.361 19.31,44.822 0.725,5.19 2.872,10.245 6.495,14.552 0.009,0.011 0.018,0.022 0.027,0.033 1.574,1.865 1.978,4.425 0.982,6.653 -5.25,11.742 -3.73,25.954 5.106,36.458 1.326,1.575 2.762,3.003 4.288,4.279 5.187,4.342 8.284,10.593 8.502,17.353 0.242,7.494 2.906,14.963 8.108,21.147 C -36.493,10.433 -14.64,12.316 0,0"
             style="fill:#b9ea6a;fill-opacity:1;fill-rule:nonzero;stroke:none"
             id="path3176" /></g><g
           id="g3178"
           transform="translate(327.623,489.4126)"><path
             d="m 0,0 c 6.984,6.984 15.204,11.997 23.962,15.044 10.108,0.403 20.369,-2.458 28.985,-8.761 21.818,-15.959 25.261,-46.736 8.152,-67.074 -2.577,-3.061 -5.465,-5.704 -8.579,-7.921 0.384,-0.297 0.768,-0.599 1.145,-0.915 14.64,-12.316 16.524,-34.169 4.208,-48.81 -5.202,-6.184 -12.105,-10.087 -19.447,-11.608 -6.623,-1.372 -12.252,-5.493 -15.642,-11.347 -0.997,-1.722 -2.157,-3.381 -3.482,-4.957 -8.836,-10.503 -22.579,-14.433 -35.047,-11.27 -2.365,0.6 -4.818,-0.236 -6.387,-2.106 -0.009,-0.011 -0.017,-0.022 -0.027,-0.032 -3.623,-4.307 -8.237,-7.288 -13.225,-8.89 -15.825,-5.084 -30.156,-13.978 -40.857,-26.697 l -213.741,-255.374 -20.675,20.609 c -6.092,5.326 -9.273,12.759 -9.43,20.293 2.704,7.204 6.917,13.947 12.663,19.694 l 235.752,235.751 c 8.99,8.991 15.427,21.103 18.61,35.025 1.576,6.884 4.4,13.374 8.332,19.195 -3.208,19.926 3.256,40.7 17.763,55.206 2.623,2.624 5.487,5.027 8.501,7.135 0.279,0.196 0.295,0.336 0.304,0.404 C -16.488,-23.323 -10.039,-10.039 0,0"
             style="fill:#95d528;fill-opacity:1;fill-rule:nonzero;stroke:none"
             id="path3180" /></g><g
           id="g3182"
           transform="translate(471.4346,345.6006)"><path
             d="m 0,0 c 14.894,14.894 14.894,39.041 0,53.934 -0.383,0.383 -0.775,0.749 -1.17,1.112 4.482,2.642 8.645,6.027 12.31,10.162 16.806,18.957 16.934,47.941 0.276,67.029 -19.567,22.421 -53.649,23.287 -74.339,2.598 -3.114,-3.114 -5.739,-6.533 -7.877,-10.159 -0.363,0.395 -0.729,0.787 -1.112,1.17 -14.894,14.894 -39.04,14.894 -53.934,0 -6.29,-6.29 -9.919,-14.231 -10.892,-22.428 -0.879,-7.394 -4.867,-13.958 -10.967,-18.228 -1.795,-1.256 -3.505,-2.686 -5.107,-4.289 -10.686,-10.685 -13.697,-26.129 -9.048,-39.505 0.881,-2.538 0.196,-5.308 -1.706,-7.205 -0.011,-0.01 -0.023,-0.022 -0.034,-0.033 -4.38,-4.381 -7.213,-9.722 -8.5,-15.346 -4.08,-17.838 -12.479,-34.397 -25.418,-47.336 L -432.783,-263.79 c -12.095,-12.095 -12.387,-32.183 -0.065,-44.046 11.944,-11.5 30.951,-11.363 42.726,0.413 l 235.752,235.751 c 12.938,12.94 29.498,21.339 47.336,25.418 5.624,1.286 10.966,4.119 15.346,8.501 0.011,0.01 0.022,0.022 0.034,0.033 1.896,1.903 4.666,2.588 7.204,1.705 13.376,-4.647 28.82,-1.636 39.505,9.048 1.603,1.603 3.032,3.314 4.289,5.108 4.27,6.1 10.835,10.088 18.228,10.966 C -14.23,-9.919 -6.29,-6.29 0,0"
             style="fill:#b9ea6a;fill-opacity:1;fill-rule:nonzero;stroke:none"
             id="path3184" /></g><g
           id="g3186"
           transform="translate(471.4346,345.6006)"><path
             d="M 0,0 C 14.049,14.049 14.839,36.329 2.383,51.312 0.577,45.816 -2.5,40.647 -6.87,36.277 -13.16,29.987 -21.101,26.358 -29.298,25.384 -36.692,24.506 -43.256,20.518 -47.526,14.418 -48.783,12.624 -50.212,10.913 -51.815,9.31 -62.5,-1.375 -77.944,-4.385 -91.32,0.263 c -2.538,0.882 -5.308,0.196 -7.204,-1.706 -0.012,-0.012 -0.023,-0.022 -0.034,-0.034 -4.381,-4.381 -9.722,-7.213 -15.346,-8.5 -17.838,-4.079 -34.398,-12.479 -47.336,-25.418 l -235.752,-235.751 c -11.494,-11.494 -29.873,-11.894 -41.854,-1.212 -5.588,-11.636 -3.726,-26.117 5.998,-35.478 11.944,-11.5 30.951,-11.363 42.726,0.413 l 235.752,235.752 c 12.938,12.939 29.498,21.338 47.336,25.417 5.624,1.287 10.966,4.119 15.346,8.501 0.011,0.01 0.022,0.022 0.034,0.033 1.896,1.903 4.666,2.588 7.204,1.706 13.376,-4.648 28.82,-1.637 39.505,9.047 1.603,1.603 3.032,3.314 4.289,5.108 4.27,6.1 10.835,10.088 18.228,10.966 C -14.23,-9.919 -6.29,-6.29 0,0"
             style="fill:#95d528;fill-opacity:1;fill-rule:nonzero;stroke:none"
             id="path3188" /></g><g
           id="g3190"
           transform="translate(274.2588,162.2852)"><path
             d="m 0,0 -176.258,-148.28 c -11.577,-9.738 -28.78,-8.374 -38.7,2.96 l -20.607,20.678 0.01,0.01"
             style="fill:none;stroke:#000000;stroke-width:15;stroke-linecap:round;stroke-linejoin:round;stroke-miterlimit:10;stroke-dasharray:none;stroke-opacity:1"
             id="path3192" /></g><g
           id="g3194"
           transform="translate(473.8311,396.8975)"><path
             d="m 0,0 c 8.425,-2.98 16.103,-8.455 21.86,-16.324 13.587,-18.577 11.213,-44.801 -5.475,-60.64 -3.636,-3.455 -7.667,-6.203 -11.93,-8.243 0.323,-0.354 0.657,-0.717 0.97,-1.091 12.314,-14.647 10.435,-36.497 -4.212,-48.811 -6.183,-5.203 -13.648,-7.87 -21.143,-8.112 -6.758,-0.212 -13.011,-3.313 -17.355,-8.495 -1.273,-1.536 -2.707,-2.97 -4.282,-4.293 -10.496,-8.84 -24.709,-10.355 -36.457,-5.102 -2.223,0.99 -4.789,0.586 -6.648,-0.99 -0.01,0 -0.019,-0.01 -0.03,-0.02 -4.313,-3.627 -9.364,-5.778 -14.556,-6.495 -16.466,-2.303 -32.103,-8.617 -44.821,-19.315 l -28.456,-23.938"
             style="fill:none;stroke:#000000;stroke-width:15;stroke-linecap:round;stroke-linejoin:round;stroke-miterlimit:10;stroke-dasharray:none;stroke-opacity:1"
             id="path3196" /></g><g
           id="g3198"
           transform="translate(161.2783,273.0645)"><path
             d="m 0,0 -147.273,-175.064 c -9.738,-11.577 -8.374,-28.78 2.96,-38.699 l 20.678,-20.608 0.01,0.011"
             style="fill:none;stroke:#000000;stroke-width:15;stroke-linecap:round;stroke-linejoin:round;stroke-miterlimit:10;stroke-dasharray:none;stroke-opacity:1"
             id="path3200" /></g><g
           id="g3202"
           transform="translate(396.8975,473.8315)"><path
             d="m 0,0 c -2.979,8.425 -8.455,16.102 -16.324,21.86 -18.577,13.586 -44.801,11.213 -60.64,-5.475 -3.455,-3.637 -6.203,-7.667 -8.243,-11.93 -0.354,0.323 -0.718,0.656 -1.091,0.969 -14.647,12.314 -36.497,10.435 -48.811,-4.212 -5.203,-6.182 -7.87,-13.647 -8.112,-21.143 -0.212,-6.757 -3.313,-13.01 -8.495,-17.354 -1.536,-1.273 -2.97,-2.707 -4.293,-4.283 -8.84,-10.496 -10.355,-24.709 -5.102,-36.457 0.99,-2.223 0.586,-4.788 -0.99,-6.647 0,-0.01 -0.01,-0.02 -0.02,-0.03 -3.627,-4.314 -5.778,-9.364 -6.495,-14.557 -2.303,-16.465 -8.617,-32.103 -19.315,-44.821 l -25.018,-29.739"
             style="fill:none;stroke:#000000;stroke-width:15;stroke-linecap:round;stroke-linejoin:round;stroke-miterlimit:10;stroke-dasharray:none;stroke-opacity:1"
             id="path3204" /></g><g
           id="g3206"
           transform="translate(242.6167,285.7759)"><path
             d="m 0,0 -203.965,-203.965 c -12.096,-12.096 -12.388,-32.183 -0.065,-44.047 11.944,-11.5 30.95,-11.362 42.726,0.413 L 74.448,-11.847 c 12.938,12.939 29.498,21.339 47.336,25.418 5.624,1.286 10.966,4.119 15.346,8.5 0.011,0.011 0.022,0.022 0.034,0.033 1.896,1.903 4.666,2.588 7.204,1.706 13.376,-4.647 28.82,-1.637 39.505,9.048 1.603,1.603 3.032,3.313 4.289,5.108 4.27,6.099 10.835,10.088 18.228,10.966 8.197,0.974 16.138,4.603 22.428,10.893 14.893,14.893 14.893,39.04 0,53.934 -0.383,0.383 -0.776,0.749 -1.17,1.112 4.481,2.641 8.644,6.027 12.31,10.161 16.806,18.957 16.934,47.942 0.276,67.03 -19.567,22.421 -53.65,23.287 -74.339,2.598 -3.114,-3.115 -5.739,-6.533 -7.877,-10.159 -0.363,0.395 -0.729,0.787 -1.112,1.17 -14.894,14.893 -39.04,14.893 -53.934,0 -6.29,-6.291 -9.919,-14.231 -10.892,-22.428 -0.879,-7.394 -4.868,-13.958 -10.967,-18.228 -1.795,-1.257 -3.505,-2.686 -5.108,-4.289 -10.685,-10.685 -13.696,-26.129 -9.047,-39.505 0.881,-2.538 0.196,-5.308 -1.707,-7.205 -0.01,-0.011 -0.022,-0.022 -0.033,-0.033 -4.381,-4.381 -7.214,-9.722 -8.5,-15.346 C 52.638,60.798 44.239,44.239 31.3,31.3 l -6.436,-6.436"
             style="fill:none;stroke:#000000;stroke-width:15;stroke-linecap:round;stroke-linejoin:round;stroke-miterlimit:10;stroke-dasharray:none;stroke-opacity:1"
             id="path3208" /></g><g
           id="g3210"
           transform="translate(424.6914,424.7041)"><path
             d="M 0,0 -76.406,-76.407"
             style="fill:none;stroke:#000000;stroke-width:15;stroke-linecap:round;stroke-linejoin:round;stroke-miterlimit:10;stroke-dasharray:none;stroke-opacity:1"
             id="path3212" /></g><g
           id="g3214"
           transform="translate(367.1621,367.1743)"><path
             d="M 0,0 H 26.967"
             style="fill:none;stroke:#000000;stroke-width:15;stroke-linecap:round;stroke-linejoin:round;stroke-miterlimit:10;stroke-dasharray:none;stroke-opacity:1"
             id="path3216" /></g><g
           id="g3218"
           transform="translate(403.3428,403.355)"><path
             d="M 0,0 H 21.124"
             style="fill:none;stroke:#000000;stroke-width:15;stroke-linecap:round;stroke-linejoin:round;stroke-miterlimit:10;stroke-dasharray:none;stroke-opacity:1"
             id="path3220" /></g><g
           id="g3222"
           transform="translate(367.1621,367.1743)"><path
             d="M 0,0 V 26.967"
             style="fill:none;stroke:#000000;stroke-width:15;stroke-linecap:round;stroke-linejoin:round;stroke-miterlimit:10;stroke-dasharray:none;stroke-opacity:1"
             id="path3224" /></g><g
           id="g3226"
           transform="translate(403.3428,403.355)"><path
             d="M 0,0 V 21.124"
             style="fill:none;stroke:#000000;stroke-width:15;stroke-linecap:round;stroke-linejoin:round;stroke-miterlimit:10;stroke-dasharray:none;stroke-opacity:1"
             id="path3228" /></g></g></g></g></svg>
