<?xml version="1.0" encoding="UTF-8"?>
<svg xmlns="http://www.w3.org/2000/svg" xmlns:xlink="http://www.w3.org/1999/xlink" version="1.1" id="Capa_1" x="0px" y="0px" viewBox="0 0 512 512" style="enable-background:new 0 0 512 512;" xml:space="preserve" width="512" height="512">
<g>
	<path style="fill:#FD4755;" d="M188.907,380.298c0,0-46.052-1.551-90.671,18.497c0,0-8.178,15.651,6.346,25.984&#10;&#9;&#9;c0,0,62.028-8.085,107.72-24.577L188.907,380.298z"/>
	<path style="fill:#FE646F;" d="M98.235,398.796c0,0-31.493,53.077,1.727,83.071c3.21,2.898,8.322,1.794,10.069-2.161&#10;&#9;&#9;c5.939-13.44,17.627-42.18,16.763-58.385C126.158,409.409,107.091,392.121,98.235,398.796z"/>
	<path style="fill:#FD4755;" d="M323.093,380.298c0,0,46.052-1.551,90.671,18.497c0,0,8.178,15.651-6.346,25.984&#10;&#9;&#9;c0,0-62.028-8.085-107.72-24.577L323.093,380.298z"/>
	<path style="fill:#FE646F;" d="M413.765,398.796c0,0,31.493,53.077-1.727,83.071c-3.21,2.898-8.322,1.794-10.069-2.161&#10;&#9;&#9;c-5.939-13.44-17.627-42.18-16.763-58.385C385.842,409.409,404.909,392.121,413.765,398.796z"/>
	
		<ellipse transform="matrix(0.8918 -0.4524 0.4524 0.8918 -76.7895 118.8664)" style="fill:#FB2B3A;" cx="210.128" cy="219.983" rx="15.923" ry="22.755"/>
	
		<ellipse transform="matrix(0.4524 -0.8918 0.8918 0.4524 -32.3707 387.2461)" style="fill:#FB2B3A;" cx="299.154" cy="219.983" rx="22.755" ry="15.923"/>
	<path style="fill:#FB2B3A;" d="M414.588,135.107c-19.692-17.244-31.247-45.608-36.659-62.139c-1.433-4.378-7.581-4.536-9.243-0.239&#10;&#9;&#9;c-10.828,27.995-29.74,93.251,21.595,109.05C390.281,181.779,443.682,160.584,414.588,135.107z"/>
	<path style="fill:#FD4755;" d="M436.538,265.269c0,0-31.795,50.422-62.359,30.13c-30.564-20.292,19.487-47.143,39.59-50.832&#10;&#9;&#9;C433.872,240.878,436.538,265.269,436.538,265.269z"/>
	<path style="fill:#FE646F;" d="M407.308,232.725c0,18.974,13.858,42.268,30.954,42.268s30.954-23.295,30.954-42.268&#10;&#9;&#9;s-13.858-26.441-30.954-26.441S407.308,213.752,407.308,232.725z"/>
	<path style="fill:#FE646F;" d="M402.802,133.934c16.979-8.96,27.629-26.529,27.629-45.696v-53.08c0-5.557,6.416-8.655,10.791-5.218&#10;&#9;&#9;C461.773,46.087,504.5,88.251,504.5,159.73c0,94.112-105.169,65.863-124.944,29.017&#10;&#9;&#9;C379.556,188.747,373.752,149.264,402.802,133.934z"/>
	<path style="fill:#FD4755;" d="M441.222,29.941c-4.375-3.438-10.791-0.34-10.791,5.218v12.523&#10;&#9;&#9;c20.537,22.103,44.069,59,44.069,112.048c0,39.174-18.226,57.135-40.926,62.112c34.148,6.401,70.926-6.458,70.926-62.112&#10;&#9;&#9;C504.5,88.251,461.773,46.087,441.222,29.941z"/>
	<path style="fill:#FB2B3A;" d="M97.412,135.107c19.692-17.244,31.247-45.608,36.659-62.139c1.433-4.378,7.581-4.536,9.243-0.239&#10;&#9;&#9;c10.828,27.995,29.74,93.251-21.595,109.05C121.719,181.779,68.318,160.584,97.412,135.107z"/>
	<path style="fill:#FD4755;" d="M75.462,265.269c0,0,31.795,50.422,62.359,30.13c30.564-20.292-19.487-47.143-39.59-50.832&#10;&#9;&#9;C78.128,240.878,75.462,265.269,75.462,265.269z"/>
	<path style="fill:#FE646F;" d="M129,295.242c0-51.874,56.86-69.987,127-69.987s127,18.112,127,69.987s-56.86,117.867-127,117.867&#10;&#9;&#9;S129,347.116,129,295.242z"/>
	<path style="fill:#FD4755;" d="M256,225.255c-5.076,0-10.08,0.098-15,0.294c63.069,2.508,112,21.573,112,69.693&#10;&#9;&#9;c0,48.12-48.931,108.379-112,116.85c4.92,0.661,9.924,1.017,15,1.017c70.14,0,127-65.992,127-117.867S326.14,225.255,256,225.255z"/>
	<path style="fill:#FE646F;" d="M104.692,232.725c0,18.974-13.858,42.268-30.954,42.268s-30.954-23.295-30.954-42.268&#10;&#9;&#9;s13.858-26.441,30.954-26.441S104.692,213.752,104.692,232.725z"/>
	<path style="fill:#FE646F;" d="M109.198,133.934c-16.979-8.96-27.629-26.529-27.629-45.696v-53.08&#10;&#9;&#9;c0-5.557-6.416-8.655-10.791-5.218C50.227,46.087,7.5,88.251,7.5,159.73c0,94.112,105.169,65.863,124.944,29.017&#10;&#9;&#9;C132.444,188.747,138.248,149.264,109.198,133.934z"/>
	<path style="fill:#FD4755;" d="M109.198,133.934c-16.979-8.96-27.629-26.529-27.629-45.696v-53.08&#10;&#9;&#9;c0-5.557-6.416-8.655-10.791-5.218c-2.239,1.759-4.742,3.828-7.424,6.21c-4.07,15.489-8.532,34.624-9.021,45.671&#10;&#9;&#9;c-0.918,20.764,8.128,40.48,19.121,56.211c11.853,16.963,21.178,34.659,16.161,60.006c-1.81,9.143-17.649,19.481-37.16,24.549&#10;&#9;&#9;c31.147,4.681,68.927-13.231,79.989-33.842C132.444,188.746,138.248,149.264,109.198,133.934z"/>
	<g>
		<path style="fill:none;stroke:#000000;stroke-width:15;stroke-linecap:round;stroke-linejoin:round;stroke-miterlimit:10;" d="&#10;&#9;&#9;&#9;M172.688,380.813c-16.607,1.197-43.757,4.944-70.851,16.411"/>
		<path style="fill:none;stroke:#000000;stroke-width:15;stroke-linecap:round;stroke-linejoin:round;stroke-miterlimit:10;" d="&#10;&#9;&#9;&#9;M128.019,421.109c20.526-3.572,51.141-9.762,77.722-18.63"/>
		<path style="fill:none;stroke:#000000;stroke-width:15;stroke-linecap:round;stroke-linejoin:round;stroke-miterlimit:10;" d="&#10;&#9;&#9;&#9;M98.235,398.796c0,0-31.493,53.077,1.727,83.071c3.21,2.898,8.322,1.794,10.069-2.161c5.939-13.44,17.627-42.18,16.763-58.385&#10;&#9;&#9;&#9;C126.158,409.409,107.091,392.121,98.235,398.796z"/>
		<path style="fill:none;stroke:#000000;stroke-width:15;stroke-linecap:round;stroke-linejoin:round;stroke-miterlimit:10;" d="&#10;&#9;&#9;&#9;M338.917,380.785c16.41,1.154,43.41,4.81,70.455,16.107"/>
		<path style="fill:none;stroke:#000000;stroke-width:15;stroke-linecap:round;stroke-linejoin:round;stroke-miterlimit:10;" d="&#10;&#9;&#9;&#9;M384.435,421.188c-20.546-3.562-51.457-9.788-78.252-18.735"/>
		<path style="fill:none;stroke:#000000;stroke-width:15;stroke-linecap:round;stroke-linejoin:round;stroke-miterlimit:10;" d="&#10;&#9;&#9;&#9;M413.765,398.796c0,0,31.493,53.077-1.727,83.071c-3.21,2.898-8.322,1.794-10.069-2.161c-5.939-13.44-17.627-42.18-16.763-58.385&#10;&#9;&#9;&#9;C385.842,409.409,404.909,392.121,413.765,398.796z"/>
		<path style="fill:none;stroke:#000000;stroke-width:15;stroke-linecap:round;stroke-linejoin:round;stroke-miterlimit:10;" d="&#10;&#9;&#9;&#9;M197.29,229.61c-0.48-0.78-0.94-1.59-1.37-2.44c-5.68-11.21-3.92-23.52,3.93-27.49c7.84-3.97,18.81,1.91,24.49,13.12&#10;&#9;&#9;&#9;c2.12,4.19,3.2,8.53,3.32,12.53"/>
		<path style="fill:none;stroke:#000000;stroke-width:15;stroke-linecap:round;stroke-linejoin:round;stroke-miterlimit:10;" d="&#10;&#9;&#9;&#9;M281.63,225.13c0.14-3.95,1.22-8.21,3.31-12.33c5.68-11.21,16.65-17.09,24.5-13.12c7.84,3.97,9.6,16.28,3.92,27.49&#10;&#9;&#9;&#9;c-0.34,0.67-0.69,1.31-1.07,1.94"/>
		<path style="fill:none;stroke:#000000;stroke-width:15;stroke-linecap:round;stroke-linejoin:round;stroke-miterlimit:10;" d="&#10;&#9;&#9;&#9;M408.087,245.987c-10.088,3.061-23.701,9.655-33.007,17.683"/>
		<path style="fill:none;stroke:#000000;stroke-width:15;stroke-linecap:round;stroke-linejoin:round;stroke-miterlimit:10;" d="&#10;&#9;&#9;&#9;M383.87,299.6c18.43,4.06,36.032-13.089,45.489-24.606"/>
		<path style="fill:none;stroke:#000000;stroke-width:15;stroke-linecap:round;stroke-linejoin:round;stroke-miterlimit:10;" d="&#10;&#9;&#9;&#9;M407.306,127.856c-15.314-17.179-24.669-40.509-29.376-54.888c-1.433-4.378-7.581-4.536-9.243-0.239&#10;&#9;&#9;&#9;c-9.842,25.445-26.363,81.675,9.259,103.569"/>
		<path style="fill:none;stroke:#000000;stroke-width:15;stroke-linecap:round;stroke-linejoin:round;stroke-miterlimit:10;" d="&#10;&#9;&#9;&#9;M411.955,216.845c-2.946,3.997-4.648,9.232-4.648,15.881c0,18.974,13.858,42.268,30.954,42.268s30.954-23.295,30.954-42.268&#10;&#9;&#9;&#9;c0-3.958-0.603-7.416-1.713-10.409"/>
		<path style="fill:none;stroke:#000000;stroke-width:15;stroke-linecap:round;stroke-linejoin:round;stroke-miterlimit:10;" d="&#10;&#9;&#9;&#9;M430.431,88.239v-53.08c0-5.557,6.416-8.656,10.791-5.218C461.773,46.087,504.5,88.251,504.5,159.73&#10;&#9;&#9;&#9;c0,94.112-105.169,65.863-124.944,29.017c0,0-5.803-39.483,23.246-54.812C419.781,124.974,430.431,107.406,430.431,88.239z"/>
		<path style="fill:none;stroke:#000000;stroke-width:15;stroke-linecap:round;stroke-linejoin:round;stroke-miterlimit:10;" d="&#10;&#9;&#9;&#9;M82.366,274.659c9.389,11.516,27.154,29.041,45.764,24.941"/>
		<path style="fill:none;stroke:#000000;stroke-width:15;stroke-linecap:round;stroke-linejoin:round;stroke-miterlimit:10;" d="&#10;&#9;&#9;&#9;M136.92,263.67c-9.254-7.983-22.768-14.548-32.839-17.631"/>
		<path style="fill:none;stroke:#000000;stroke-width:15;stroke-linecap:round;stroke-linejoin:round;stroke-miterlimit:10;" d="&#10;&#9;&#9;&#9;M256.692,413.106c-0.231,0.001-0.461,0.002-0.692,0.002c-70.14,0-127-65.992-127-117.867s56.86-69.987,127-69.987&#10;&#9;&#9;&#9;s127,18.112,127,69.987c0,42.955-38.988,95.591-92.22,112.421"/>
		<path style="fill:none;stroke:#000000;stroke-width:15;stroke-linecap:round;stroke-linejoin:round;stroke-miterlimit:10;" d="&#10;&#9;&#9;&#9;M104.693,127.858c15.315-17.179,24.67-40.511,29.378-54.89c1.433-4.378,7.581-4.536,9.243-0.239&#10;&#9;&#9;&#9;c9.811,25.364,26.257,81.315-8.918,103.358"/>
		<path style="fill:none;stroke:#000000;stroke-width:15;stroke-linecap:round;stroke-linejoin:round;stroke-miterlimit:10;" d="&#10;&#9;&#9;&#9;M100.364,217.29c2.749,3.938,4.328,9.031,4.328,15.435c0,18.974-13.858,42.268-30.954,42.268s-30.954-23.295-30.954-42.268&#10;&#9;&#9;&#9;c0-3.511,0.475-6.629,1.357-9.378"/>
		<path style="fill:none;stroke:#000000;stroke-width:15;stroke-linecap:round;stroke-linejoin:round;stroke-miterlimit:10;" d="&#10;&#9;&#9;&#9;M30.998,74.795C17.949,96.203,7.5,124.382,7.5,159.73c0,94.112,105.169,65.863,124.944,29.017c0,0,5.803-39.483-23.246-54.812&#10;&#9;&#9;&#9;c-16.979-8.96-27.629-26.529-27.629-45.696l0-53.08c0-5.557-6.416-8.656-10.791-5.218c-5.424,4.262-12.393,10.336-19.714,18.283"/>
		<g>
			<path style="fill:none;stroke:#000000;stroke-width:15;stroke-linecap:round;stroke-linejoin:round;stroke-miterlimit:10;" d="&#10;&#9;&#9;&#9;&#9;M137.263,332.964c-12.14-3.814-32.685-8.517-54.109-5.643c-16.021,2.15-31.309,13.664-46.217,23.424"/>
			<path style="fill:none;stroke:#000000;stroke-width:15;stroke-linecap:round;stroke-linejoin:round;stroke-miterlimit:10;" d="&#10;&#9;&#9;&#9;&#9;M152.428,358.302c-10.959-2.936-37.299-8.367-62.197-1.134c-14.656,4.258-26.857,19.629-38.531,30.773"/>
			<path style="fill:none;stroke:#000000;stroke-width:15;stroke-linecap:round;stroke-linejoin:round;stroke-miterlimit:10;" d="&#10;&#9;&#9;&#9;&#9;M375.552,331.741c12.371-3.497,30.838-6.992,50.009-4.42c16.021,2.15,31.309,13.664,46.217,23.424"/>
			<path style="fill:none;stroke:#000000;stroke-width:15;stroke-linecap:round;stroke-linejoin:round;stroke-miterlimit:10;" d="&#10;&#9;&#9;&#9;&#9;M360.939,357.147c12.694-2.915,35.676-6.333,57.545,0.021c14.656,4.258,26.857,19.629,38.531,30.773"/>
		</g>
	</g>
</g>















</svg>
