<?xml version="1.0" encoding="UTF-8"?>
<svg xmlns="http://www.w3.org/2000/svg" xmlns:xlink="http://www.w3.org/1999/xlink" version="1.1" id="Capa_1" x="0px" y="0px" viewBox="0 0 512 512" style="enable-background:new 0 0 512 512;" xml:space="preserve" width="512" height="512">
<g>
	<g>
		<path style="fill:#FFD15B;" d="M325.971,86.63c-3.957-1.194-7.698-2.916-11.183-5.067c0,2.926-2,4.937-2,4.937&#10;&#9;&#9;&#9;c0,31.758-23.745,46.091-55.503,46.091h-2.57c-31.758,0-55.503-14.333-55.503-46.091l-2-4.937&#10;&#9;&#9;&#9;c-3.485,2.151-7.225,3.874-11.182,5.067c-31.443,9.484-55.205,52.838-59.679,89.408c-0.502,4.103,4.779,9.949,4.779,13.824&#10;&#9;&#9;&#9;l-5.542,18.172c0,21.216,5.375,39.224,14.837,53.956c20.817,32.411,61.416,44.971,108.091,44.971h14.97&#10;&#9;&#9;&#9;c67.891,0,118.928-31.035,118.928-98.927v-20.001c0-33.609-15.502-77.963-43.805-95.593&#10;&#9;&#9;&#9;C334.565,89.922,330.342,87.949,325.971,86.63z"/>
		<path style="fill:#FFC344;" d="M385.66,176.037c-3.824-31.554-21.896-68.081-47.052-83.597&#10;&#9;&#9;&#9;c14.281,20.893,22.804,48.081,22.804,70.591v0c0,7.184-5.824,13.007-13.007,13.007h-1.442c-14.948,0-29.024,6.315-39.609,16.87&#10;&#9;&#9;&#9;c-1.635,1.63-3.382,3.023-5.189,4.139c-1.713,1.058-3.485,1.866-5.269,2.404c-9.871,2.978-19.386,8.227-28.221,15.455&#10;&#9;&#9;&#9;c-7.386,6.043-17.966,6.043-25.352,0c-8.835-7.229-18.35-12.478-28.223-15.455c-1.781-0.538-3.554-1.346-5.266-2.404&#10;&#9;&#9;&#9;c-1.806-1.115-3.55-2.505-5.185-4.134c-10.925-10.882-25.432-16.875-40.848-16.875l-37.454,0&#10;&#9;&#9;&#9;c-0.502,4.102-0.763,8.121-0.763,11.995v20.001c0,67.891,55.037,102.927,122.928,102.927h14.97c9.902,0,19.526-0.751,28.75-2.234&#10;&#9;&#9;&#9;c-0.397-3.069-0.914-6.166-1.524-9.275c55.021-6.048,95.702-32.599,95.702-91.418v-20.001&#10;&#9;&#9;&#9;C386.413,184.156,386.157,180.139,385.66,176.037z"/>
		<path style="fill:#FFD15B;" d="M256,94.208L256,94.208c10.7,0,21.375-12.675,21.375-23.375l-2-6.552h-38.749l-2,6.552&#10;&#9;&#9;&#9;C234.625,81.534,245.3,94.208,256,94.208z"/>
		<path style="fill:#F8F6F6;" d="M305.094,73.869c-5.947-5.924-14.146-9.587-23.204-9.587h-6.516v6.552&#10;&#9;&#9;&#9;c0,10.7-8.674,19.375-19.375,19.375h0c-10.7,0-19.375-8.674-19.375-19.375v-6.552h-6.516c-9.058,0-17.257,3.663-23.204,9.587&#10;&#9;&#9;&#9;c-2.945,2.933-6.19,5.531-9.694,7.694V86.5c0,31.758,25.745,57.503,57.503,57.503h2.57c31.758,0,57.503-25.745,57.503-57.503v0&#10;&#9;&#9;&#9;c0,0,0-2.011,0-4.937C311.284,79.4,308.039,76.802,305.094,73.869z"/>
		<path style="fill:#FFD15B;" d="M444.057,223.387c-3.957-1.194-7.698-2.916-11.183-5.067c0,2.926-2,4.937-2,4.937&#10;&#9;&#9;&#9;c0,31.758-23.745,46.091-55.503,46.091h-2.57c-31.758,0-55.503-14.333-55.503-46.091l-2-4.937&#10;&#9;&#9;&#9;c-3.485,2.151-7.225,3.874-11.182,5.067c-34.97,10.548-60.443,62.992-60.443,101.403v20.001c0,21.216,7.021,36.21,16.483,50.942&#10;&#9;&#9;&#9;c20.817,32.411,59.77,47.984,106.446,47.984h14.97c67.891,0,118.928-31.035,118.928-98.927V324.79&#10;&#9;&#9;&#9;c0-33.609-15.502-77.963-43.805-95.593C452.652,226.679,448.429,224.706,444.057,223.387z"/>
		<path style="fill:#FFD15B;" d="M374.087,230.966L374.087,230.966c10.7,0,21.375-12.675,21.375-23.375l-2-6.552h-38.749l-2,6.552&#10;&#9;&#9;&#9;C352.712,218.291,363.386,230.966,374.087,230.966z"/>
		<path style="fill:#F8F6F6;" d="M423.181,210.626c-5.947-5.924-14.146-9.587-23.204-9.587h-6.516v6.552&#10;&#9;&#9;&#9;c0,10.7-8.674,19.375-19.375,19.375h0c-10.7,0-19.375-8.674-19.375-19.375v-6.552h-6.516c-9.058,0-17.257,3.663-23.204,9.587&#10;&#9;&#9;&#9;c-2.945,2.933-6.19,5.531-9.694,7.694v4.937c0,31.758,25.745,57.503,57.503,57.503h2.57c31.758,0,57.503-25.745,57.503-57.503v0&#10;&#9;&#9;&#9;c0,0,0-2.011,0-4.937C429.371,216.157,426.125,213.56,423.181,210.626z"/>
		<path style="fill:#FFC344;" d="M456.695,229.198c14.281,20.893,22.804,48.081,22.804,70.591l0,0&#10;&#9;&#9;&#9;c0,67.891-55.037,122.928-122.928,122.928H341.6c-21.429,0-42.017-4.168-59.843-11.514c-2.755-1.135-3.986-4.389-2.582-7.017&#10;&#9;&#9;&#9;c9.232-17.273,14.151-37.196,14.151-59.395V324.79c0-23.529-7.392-50.26-20.28-73.339c-0.639-1.144-1.292-2.268-1.951-3.381&#10;&#9;&#9;&#9;c-16.858,21.438-27.421,51.987-27.421,76.72v20.001c0,26.995,8.428,48.793,23.489,65.095c0.062,0.068,0.123,0.136,0.185,0.203&#10;&#9;&#9;&#9;c0.294,0.316,0.594,0.627,0.893,0.939c22.58,23.946,58.711,36.69,98.361,36.69h14.97c67.891,0,122.928-35.036,122.928-102.927&#10;&#9;&#9;&#9;V324.79C504.5,291.091,485.121,246.731,456.695,229.198z"/>
		<path style="fill:#FFDE80;" d="M207.884,223.387c-3.957-1.194-7.698-2.916-11.183-5.067c0,2.926-2,4.937-2,4.937&#10;&#9;&#9;&#9;c0,31.758-23.745,46.091-55.503,46.091h-2.57c-31.758,0-55.503-14.333-55.503-46.091l-2-4.937&#10;&#9;&#9;&#9;c-3.485,2.151-7.225,3.874-11.182,5.067C32.972,233.935,7.5,286.379,7.5,324.79v20.001c0,21.216,3.849,37.291,11.694,48.664&#10;&#9;&#9;&#9;c21.874,31.707,64.558,50.263,111.234,50.263h14.97c67.891,0,118.928-31.035,118.928-98.927V324.79&#10;&#9;&#9;&#9;c0-33.609-15.502-77.963-43.805-95.593C216.478,226.679,212.255,224.706,207.884,223.387z"/>
		<g>
			<path style="fill:#FFD15B;" d="M220.522,229.198c14.281,20.893,22.804,48.081,22.804,70.591v-0.055&#10;&#9;&#9;&#9;&#9;c0,67.891-54.877,120.054-122.768,120.054h-14.97c-31.568,0-64.993-12.083-86.762-27.014&#10;&#9;&#9;&#9;&#9;c20.487,37.088,65.637,54.944,111.603,54.944h14.97c67.891,0,122.928-35.036,122.928-102.927V324.79&#10;&#9;&#9;&#9;&#9;C268.327,291.091,248.948,246.731,220.522,229.198z"/>
		</g>
		<path style="fill:#FFDE80;" d="M137.913,230.966L137.913,230.966c10.7,0,21.375-12.675,21.375-23.375l-2-6.552h-38.749l-2,6.552&#10;&#9;&#9;&#9;C116.538,218.291,127.213,230.966,137.913,230.966z"/>
		<path style="fill:#F8F6F6;" d="M187.008,210.626c-5.947-5.924-14.146-9.587-23.204-9.587h-6.516v6.552&#10;&#9;&#9;&#9;c0,10.7-8.674,19.375-19.375,19.375h0c-10.7,0-19.375-8.674-19.375-19.375v-6.552h-6.516c-9.058,0-17.257,3.663-23.204,9.587&#10;&#9;&#9;&#9;c-2.945,2.933-6.19,5.531-9.694,7.694v4.937c0,31.758,25.745,57.503,57.503,57.503h2.57c31.758,0,57.503-25.745,57.503-57.503v0&#10;&#9;&#9;&#9;c0,0,0-2.011,0-4.937C193.198,216.157,189.952,213.56,187.008,210.626z"/>
	</g>
	<g>
		<path style="fill:none;stroke:#000000;stroke-width:15;stroke-linecap:round;stroke-linejoin:round;stroke-miterlimit:10;" d="&#10;&#9;&#9;&#9;M125.59,199.66v-11.63c0-10.64,1.96-22.36,5.53-33.97"/>
		<path style="fill:none;stroke:#000000;stroke-width:15;stroke-linecap:round;stroke-linejoin:round;stroke-miterlimit:10;" d="&#10;&#9;&#9;&#9;M145.5,122.11c10.5-17.04,24.51-30.65,40.53-35.48c7.94-2.39,15-6.91,20.88-12.76c5.94-5.93,14.14-9.59,23.2-9.59h6.52h38.74h6.52&#10;&#9;&#9;&#9;c9.06,0,17.26,3.66,23.2,9.59c5.88,5.85,12.94,10.37,20.88,12.76c34.97,10.55,60.44,62.99,60.44,101.4v11.63"/>
		<path style="fill:none;stroke:#000000;stroke-width:15;stroke-linecap:round;stroke-linejoin:round;stroke-miterlimit:10;" d="&#10;&#9;&#9;&#9;M314.788,86.5L314.788,86.5c0,31.758-25.745,57.503-57.503,57.503h-2.57c-31.758,0-57.503-25.745-57.503-57.503v0"/>
		<path style="fill:none;stroke:#000000;stroke-width:15;stroke-linecap:round;stroke-linejoin:round;stroke-miterlimit:10;" d="&#10;&#9;&#9;&#9;M275.375,64.282v6.552c0,10.7-8.674,19.375-19.375,19.375h0c-10.7,0-19.375-8.674-19.375-19.375v-6.552"/>
		<path style="fill:none;stroke:#000000;stroke-width:15;stroke-linecap:round;stroke-linejoin:round;stroke-miterlimit:10;" d="&#10;&#9;&#9;&#9;M196.701,223.257L196.701,223.257c0,31.758-25.745,57.503-57.503,57.503h-2.57c-31.758,0-57.503-25.745-57.503-57.503v0"/>
		<path style="fill:none;stroke:#000000;stroke-width:15;stroke-linecap:round;stroke-linejoin:round;stroke-miterlimit:10;" d="&#10;&#9;&#9;&#9;M157.288,201.039v6.552c0,10.7-8.674,19.375-19.375,19.375h0c-10.7,0-19.375-8.674-19.375-19.375v-6.552"/>
		<path style="fill:none;stroke:#000000;stroke-width:15;stroke-linecap:round;stroke-linejoin:round;stroke-miterlimit:10;" d="&#10;&#9;&#9;&#9;M256.405,395.298c20.097,34.685,61.893,52.42,110.197,52.42h14.97c67.891,0,122.928-35.036,122.928-102.927V324.79&#10;&#9;&#9;&#9;c0-38.411-25.472-90.855-60.442-101.403c-7.937-2.394-15.004-6.91-20.876-12.761c-5.947-5.924-14.146-9.587-23.204-9.587h-51.781&#10;&#9;&#9;&#9;c-9.058,0-17.257,3.663-23.204,9.587c-5.873,5.851-12.94,10.367-20.876,12.761c-20.124,6.07-37.102,26.013-47.892,49.173"/>
		<path style="fill:none;stroke:#000000;stroke-width:15;stroke-linecap:round;stroke-linejoin:round;stroke-miterlimit:10;" d="&#10;&#9;&#9;&#9;M315.3,223.26c0,31.76,25.74,57.5,57.5,57.5h2.57c5.14,0,10.11-0.67,14.85-1.94"/>
		<path style="fill:none;stroke:#000000;stroke-width:15;stroke-linecap:round;stroke-linejoin:round;stroke-miterlimit:10;" d="&#10;&#9;&#9;&#9;M432.87,223.26c0,13.88-4.91,26.61-13.1,36.54"/>
		<path style="fill:none;stroke:#000000;stroke-width:15;stroke-linecap:round;stroke-linejoin:round;stroke-miterlimit:10;" d="&#10;&#9;&#9;&#9;M393.461,201.039v6.552c0,10.7-8.674,19.375-19.375,19.375h0c-10.7,0-19.375-8.674-19.375-19.375v-6.552"/>
		<path style="fill:none;stroke:#000000;stroke-width:15;stroke-linecap:round;stroke-linejoin:round;stroke-miterlimit:10;" d="&#10;&#9;&#9;&#9;M143.09,447.72h2.31c67.89,0,122.93-35.04,122.93-102.93v-20c0-38.41-25.48-90.85-60.45-101.4c-7.93-2.4-15-6.91-20.87-12.76&#10;&#9;&#9;&#9;c-5.95-5.93-14.15-9.59-23.21-9.59h-51.78c-9.06,0-17.25,3.66-23.2,9.59c-5.87,5.85-12.94,10.36-20.88,12.76&#10;&#9;&#9;&#9;C32.97,233.94,7.5,286.38,7.5,324.79v20c0,60.26,43.36,94.64,100.59,101.61"/>
	</g>
</g>















</svg>
