<?xml version="1.0" encoding="UTF-8" standalone="no"?>
<!-- Created with Inkscape (http://www.inkscape.org/) -->

<svg
   version="1.1"
   id="svg2703"
   xml:space="preserve"
   width="682.66669"
   height="682.66669"
   viewBox="0 0 682.66669 682.66669"
   xmlns="http://www.w3.org/2000/svg"
   xmlns:svg="http://www.w3.org/2000/svg"><defs
     id="defs2707"><clipPath
       clipPathUnits="userSpaceOnUse"
       id="clipPath2717"><path
         d="M 0,512 H 512 V 0 H 0 Z"
         id="path2715" /></clipPath></defs><g
     id="g2709"
     transform="matrix(1.3333333,0,0,-1.3333333,0,682.66667)"><g
       id="g2711"><g
         id="g2713"
         clip-path="url(#clipPath2717)"><g
           id="g2719"
           transform="translate(301.7002,436.0854)"><path
             d="m 0,0 h -91.8 c -32.281,-65.84 -39.981,-81.546 -53.507,-109.129 -9.941,-20.275 -15.133,-42.794 -15.133,-65.646 v -221.354 c 0,-17.925 13.702,-32.456 30.603,-32.456 H 38.437 c 16.901,0 30.603,14.531 30.603,32.456 v 221.183 c 0,22.963 -5.241,45.585 -15.275,65.933 C 46.66,-94.604 39.412,-79.91 0,0"
             style="fill:#cde2ff;fill-opacity:1;fill-rule:nonzero;stroke:none"
             id="path2721" /></g><g
           id="g2723"
           transform="translate(206.8604,7.5)"><path
             d="m 0,0 h -35 c -16.9,0 -30.601,14.53 -30.601,32.46 v 221.35 c 0,22.85 5.191,45.37 15.13,65.65 13.531,27.58 21.231,43.29 53.511,109.13 h 35 C 5.76,362.75 -1.94,347.04 -15.471,319.46 c -9.939,-20.28 -15.13,-42.8 -15.13,-65.65 V 32.46 C -30.601,14.53 -16.9,0 0,0"
             style="fill:#c0dbff;fill-opacity:1;fill-rule:nonzero;stroke:none"
             id="path2725" /></g><g
           id="g2727"
           transform="translate(340.7402,261.1401)"><path
             d="m 0,0 v -221.23 c -0.01,-1.35 -1.18,-2.41 -2.53,-2.41 h -164.42 c -1.351,0 -2.521,1.06 -2.53,2.41 V 0.17 c 0,18.2 4.169,36.33 12.07,52.44 l 27.787,56.675 c 1.063,2.17 3.266,3.553 5.682,3.581 14.98,0.173 27.245,0.816 39.871,-10.366 7.27,-6.456 16.936,-10.33 27.25,-10.33 h 21.189 c 2.429,0 4.651,-1.381 5.733,-3.556 C -11.263,51.141 0,33.037 0,0"
             style="fill:#fff5f4;fill-opacity:1;fill-rule:nonzero;stroke:none"
             id="path2729" /></g><g
           id="g2731"
           transform="translate(304.0908,435.0864)"><path
             d="m 0,0 h -96.182 c -9.948,0 -18.013,8.065 -18.013,18.014 V 51.4 c 0,9.949 8.065,18.014 18.013,18.014 H 0 c 9.948,0 18.014,-8.065 18.014,-18.014 V 18.014 C 18.014,8.065 9.948,0 0,0"
             style="fill:#62a6fd;fill-opacity:1;fill-rule:nonzero;stroke:none"
             id="path2733" /></g><g
           id="g2735"
           transform="translate(242.9102,435.0898)"><path
             d="m 0,0 h -35 c -9.95,0 -18.01,8.06 -18.01,18.01 V 51.4 c 0,9.95 8.06,18.01 18.01,18.01 H 0 c -9.95,0 -18.01,-8.06 -18.01,-18.01 V 18.01 C -18.01,8.06 -9.95,0 0,0"
             style="fill:#4394fb;fill-opacity:1;fill-rule:nonzero;stroke:none"
             id="path2737" /></g><g
           id="g2739"
           transform="translate(340.7402,261.1401)"><path
             d="m 0,0 v -221.23 c -0.01,-1.35 -1.18,-2.41 -2.53,-2.41 h -164.42 c -1.351,0 -2.521,1.06 -2.53,2.41 V 0.17 c 0,18.2 4.169,36.33 12.07,52.44 l 27.79,56.68 c 1.059,2.17 3.26,3.55 5.68,3.58 10.81,0.12 20.21,0.49 29.35,-3.53 3.52,-1.53 7.01,-3.73 10.52,-6.84 7.269,-6.46 16.94,-10.33 27.25,-10.33 h 21.189 c 2.431,0 4.651,-1.38 5.731,-3.56 C -11.26,51.14 0,33.04 0,0"
             style="fill:#ebe0da;fill-opacity:1;fill-rule:nonzero;stroke:none"
             id="path2741" /></g><g
           id="g2743"
           transform="translate(340.7402,261.1401)"><path
             d="m 0,0 v -221.23 c -0.01,-1.35 -1.18,-2.41 -2.53,-2.41 h -129.42 c -1.351,0 -2.521,1.06 -2.53,2.41 V 0.17 c 0,18.2 4.169,36.33 12.07,52.44 l 27.79,56.68 c 0.01,0.02 0.019,0.03 0.03,0.05 3.52,-1.53 7.01,-3.73 10.52,-6.84 7.269,-6.46 16.94,-10.33 27.25,-10.33 h 21.189 c 2.431,0 4.651,-1.38 5.731,-3.56 C -11.26,51.14 0,33.04 0,0"
             style="fill:#fff5f4;fill-opacity:1;fill-rule:nonzero;stroke:none"
             id="path2745" /></g><g
           id="g2747"
           transform="translate(302.1904,435.0898)"><path
             d="m 0,0 c 38.979,-79.03 46.199,-93.67 53.27,-108.02 10.04,-20.35 15.28,-42.97 15.28,-65.93 v -221.18 c 0,-17.93 -13.7,-32.46 -30.601,-32.46 H -130.33 c -16.9,0 -30.601,14.53 -30.601,32.46 v 221.35 c 0,22.85 5.191,45.37 15.13,65.65 13.46,27.44 21.151,43.13 53.021,108.13"
             style="fill:none;stroke:#000000;stroke-width:15;stroke-linecap:round;stroke-linejoin:round;stroke-miterlimit:10;stroke-dasharray:850, 30;stroke-dashoffset:0;stroke-opacity:1"
             id="path2749" /></g><g
           id="g2751"
           transform="translate(340.7402,261.1401)"><path
             d="m 0,0 v -221.23 c -0.01,-1.35 -1.18,-2.41 -2.53,-2.41 h -164.42 c -1.351,0 -2.521,1.06 -2.53,2.41 V 0.17 c 0,18.2 4.169,36.33 12.07,52.44 l 27.787,56.675 c 1.063,2.17 3.266,3.553 5.682,3.581 14.98,0.173 27.245,0.816 39.871,-10.366 7.27,-6.456 16.936,-10.33 27.25,-10.33 h 21.189 c 2.429,0 4.651,-1.381 5.733,-3.556 C -11.263,51.141 0,33.037 0,0 Z"
             style="fill:none;stroke:#000000;stroke-width:15;stroke-linecap:round;stroke-linejoin:round;stroke-miterlimit:10;stroke-dasharray:420, 30;stroke-dashoffset:0;stroke-opacity:1"
             id="path2753" /></g><g
           id="g2755"
           transform="translate(304.0908,435.0864)"><path
             d="m 0,0 h -96.182 c -9.948,0 -18.013,8.065 -18.013,18.014 V 51.4 c 0,9.949 8.065,18.014 18.013,18.014 H 0 c 9.948,0 18.014,-8.065 18.014,-18.014 V 18.014 C 18.014,8.065 9.948,0 0,0 Z"
             style="fill:none;stroke:#000000;stroke-width:15;stroke-linecap:round;stroke-linejoin:round;stroke-miterlimit:10;stroke-dasharray:none;stroke-opacity:1"
             id="path2757" /></g></g></g></g></svg>
