<svg version="1.1" id="Capa_1" xmlns="http://www.w3.org/2000/svg" xmlns:xlink="http://www.w3.org/1999/xlink" x="0px" y="0px" viewBox="0 0 512 512" style="enable-background:new 0 0 512 512;" xml:space="preserve">
<g>
	<g>
		<path style="fill:#2F7580;" d="M393.331,53.123c-64.337-30.854-195.519-32.324-227.458,116.78&#10;&#9;&#9;&#9;c-24.227,113.103-8.509,253.683,0.494,314.975c2.233,15.2,19.125,23.301,32.375,15.526&#10;&#9;&#9;&#9;c53.431-31.351,172.894-107.103,245.923-196.802C540.94,185.351,457.667,83.977,393.331,53.123z"/>
		<path style="fill:#DB8915;" d="M341.351,100.017c-50.423-24.181-153.234-25.334-178.265,91.524&#10;&#9;&#9;&#9;c-18.987,88.642-6.669,198.819,0.387,246.855c1.75,11.913,14.989,18.262,25.373,12.168&#10;&#9;&#9;&#9;c41.875-24.571,135.502-83.94,192.737-154.24C457.037,203.648,391.774,124.198,341.351,100.017z"/>
		<path style="fill:#3A8C97;" d="M184.669,7.5C113.317,7.5-5.604,62.899,30.073,211.153&#10;&#9;&#9;&#9;c27.062,112.458,102.023,232.419,136.644,283.792c8.586,12.74,27.32,12.74,35.906,0&#10;&#9;&#9;&#9;c34.621-51.373,109.582-171.333,136.644-283.792C374.942,62.899,256.021,7.5,184.669,7.5z"/>
		<path style="fill:#2F7580;" d="M184.669,7.505c-4.803,0-9.827,0.26-15,0.773c71.668,7.115,172.871,64.605,139.596,202.879&#10;&#9;&#9;&#9;c-27.062,112.458-102.022,232.419-136.644,283.792c-0.883,1.31-1.877,2.478-2.953,3.518c9.383,9.08,25.25,7.912,32.953-3.518&#10;&#9;&#9;&#9;c34.621-51.373,109.582-171.333,136.644-283.792C374.942,62.903,256.021,7.505,184.669,7.505z"/>
		<path style="fill:#4EB5C3;" d="M166.716,494.945c-31.575-46.854-96.698-150.757-128.443-253.99&#10;&#9;&#9;&#9;c29.855-60.605,98.732-85.337,146.395-85.337c47.663,0,116.541,24.731,146.395,85.337&#10;&#9;&#9;&#9;c-31.745,103.232-96.867,207.136-128.443,253.99C194.036,507.685,175.302,507.685,166.716,494.945z"/>
		<path style="fill:#44A1AF;" d="M309.628,209.559C281.515,325,207.698,444.489,169.669,498.463&#10;&#9;&#9;&#9;c8.487,8.515,23.634,7.842,31.312-1.38c8.722-12.1,16.404-24.67,24.478-37.273c42.122-67.967,80.267-138.535,105.606-218.855&#10;&#9;&#9;&#9;C325.252,229.155,317.955,218.721,309.628,209.559z"/>
		<path style="fill:#92D3DB;" d="M74.249,332.911c31.984,68.732,70.41,129.304,92.467,162.034c8.586,12.74,27.32,12.74,35.905,0&#10;&#9;&#9;&#9;c22.057-32.73,60.483-93.302,92.467-162.034c-33.469-27.95-77.116-40.046-110.42-40.046&#10;&#9;&#9;&#9;C151.365,292.865,107.718,304.961,74.249,332.911z"/>
		<path style="fill:#5EC4D0;" d="M272.292,317.049c-35.155,77.998-75.456,143.553-102.623,181.414&#10;&#9;&#9;&#9;c8.13,8.147,22.525,7.953,30.418-0.412c8.702-11.172,15.817-23.604,23.617-35.458c26.248-41.666,50.531-84.966,71.381-129.685&#10;&#9;&#9;&#9;C287.89,326.9,280.224,321.629,272.292,317.049z"/>
	</g>
	<g>
		<path style="fill:none;stroke:#000000;stroke-width:15;stroke-linecap:round;stroke-linejoin:round;stroke-miterlimit:10;" d="&#10;&#9;&#9;&#9;M191.427,503.096c2.485-0.428,4.957-1.308,7.315-2.692c53.431-31.351,172.894-107.103,245.923-196.802&#10;&#9;&#9;&#9;c96.275-118.251,13.003-219.625-51.334-250.478c-16.322-7.827-36.947-13.764-59.161-15.83"/>
		<path style="fill:none;stroke:#000000;stroke-width:15;stroke-linecap:round;stroke-linejoin:round;stroke-miterlimit:10;" d="&#10;&#9;&#9;&#9;M259.374,405.145c41.246-29.058,88.165-67.006,122.209-108.821c75.454-92.677,10.19-172.126-40.232-196.307&#10;&#9;&#9;&#9;c-2.726-1.307-5.604-2.547-8.615-3.704"/>
		<path style="fill:none;stroke:#000000;stroke-width:15;stroke-linecap:round;stroke-linejoin:round;stroke-miterlimit:10;" d="&#10;&#9;&#9;&#9;M184.669,7.5C113.317,7.5-5.604,62.899,30.073,211.153c27.062,112.458,102.023,232.419,136.644,283.792&#10;&#9;&#9;&#9;c8.586,12.74,27.32,12.74,35.906,0c34.621-51.373,109.582-171.333,136.644-283.792C374.942,62.899,256.021,7.5,184.669,7.5z"/>
		<path style="fill:none;stroke:#000000;stroke-width:15;stroke-linecap:round;stroke-linejoin:round;stroke-miterlimit:10;" d="&#10;&#9;&#9;&#9;M202.622,494.945c31.575-46.854,96.698-150.757,128.443-253.99c-29.855-60.605-98.732-85.337-146.395-85.337&#10;&#9;&#9;&#9;c-47.664,0-116.541,24.731-146.395,85.337c31.745,103.232,96.867,207.136,128.443,253.99&#10;&#9;&#9;&#9;C175.302,507.685,194.036,507.685,202.622,494.945z"/>
		<path style="fill:none;stroke:#000000;stroke-width:15;stroke-linecap:round;stroke-linejoin:round;stroke-miterlimit:10;" d="&#10;&#9;&#9;&#9;M295.089,332.911c-33.469-27.95-77.116-40.046-110.42-40.046c-22.895,0-50.678,5.717-76.682,18.371"/>
	</g>
</g>
<g>
</g>
<g>
</g>
<g>
</g>
<g>
</g>
<g>
</g>
<g>
</g>
<g>
</g>
<g>
</g>
<g>
</g>
<g>
</g>
<g>
</g>
<g>
</g>
<g>
</g>
<g>
</g>
<g>
</g>
</svg>