<?xml version="1.0" encoding="UTF-8" standalone="no"?>
<!-- Created with Inkscape (http://www.inkscape.org/) -->

<svg
   version="1.1"
   id="svg3930"
   xml:space="preserve"
   width="682.66669"
   height="682.66669"
   viewBox="0 0 682.66669 682.66669"
   xmlns="http://www.w3.org/2000/svg"
   xmlns:svg="http://www.w3.org/2000/svg"><defs
     id="defs3934"><clipPath
       clipPathUnits="userSpaceOnUse"
       id="clipPath3944"><path
         d="M 0,512 H 512 V 0 H 0 Z"
         id="path3942" /></clipPath></defs><g
     id="g3936"
     transform="matrix(1.3333333,0,0,-1.3333333,0,682.66667)"><g
       id="g3938"><g
         id="g3940"
         clip-path="url(#clipPath3944)"><g
           id="g3946"
           transform="translate(346,504.5)"><path
             d="m 0,0 h 15 c 8.284,0 15,-6.716 15,-15 v -60 h -60 z"
             style="fill:#f69f4c;fill-opacity:1;fill-rule:nonzero;stroke:none"
             id="path3948" /></g><g
           id="g3950"
           transform="translate(316,504.5)"><path
             d="M 0,0 H 30 V -75 H -30 Z"
             style="fill:#f8bd5c;fill-opacity:1;fill-rule:nonzero;stroke:none"
             id="path3952" /></g><g
           id="g3954"
           transform="translate(286,504.5)"><path
             d="M 0,0 H 30 V -75 H -30 Z"
             style="fill:#fbdc6b;fill-opacity:1;fill-rule:nonzero;stroke:none"
             id="path3956" /></g><g
           id="g3958"
           transform="translate(256,504.5)"><path
             d="M 0,0 H 30 V -75 H -30 Z"
             style="fill:#f8bd5c;fill-opacity:1;fill-rule:nonzero;stroke:none"
             id="path3960" /></g><g
           id="g3962"
           transform="translate(226,504.5)"><path
             d="M 0,0 H 30 V -75 H -30 Z"
             style="fill:#fbdc6b;fill-opacity:1;fill-rule:nonzero;stroke:none"
             id="path3964" /></g><g
           id="g3966"
           transform="translate(196,504.5)"><path
             d="M 0,0 H 30 V -75 H -30 Z"
             style="fill:#f8bd5c;fill-opacity:1;fill-rule:nonzero;stroke:none"
             id="path3968" /></g><g
           id="g3970"
           transform="translate(166,504.5)"><path
             d="M 0,0 H 30 V -75 H -30 Z"
             style="fill:#fbdc6b;fill-opacity:1;fill-rule:nonzero;stroke:none"
             id="path3972" /></g><g
           id="g3974"
           transform="translate(151,504.5)"><path
             d="m 0,0 h 15 v -75 h -30 v 60 c 0,8.284 6.716,15 15,15"
             style="fill:#fdfa7b;fill-opacity:1;fill-rule:nonzero;stroke:none"
             id="path3976" /></g><g
           id="g3978"
           transform="translate(376,444.5)"><path
             d="m 0,0 h -30 l -90,-60 120,30 c 8.284,0 15,6.716 15,15 C 15,-6.716 8.284,0 0,0"
             style="fill:#f69f4c;fill-opacity:1;fill-rule:nonzero;stroke:none"
             id="path3980" /></g><g
           id="g3982"
           transform="translate(361,429.5)"><path
             d="m 0,0 c 0,8.284 -6.716,15 -15,15 h -210 c -8.284,0 -15,-6.716 -15,-15 0,-8.284 6.716,-15 15,-15 l 120,-30 90,30 c 8.284,0 15,6.716 15,15"
             style="fill:#f8bd5c;fill-opacity:1;fill-rule:nonzero;stroke:none"
             id="path3984" /></g><g
           id="g3986"
           transform="translate(376,414.5)"><path
             d="M 0,0 H -30 V -407 H 0 c 33.137,0 60,26.863 60,60 V -60 C 60,-26.863 33.137,0 0,0"
             style="fill:#fdfa7b;fill-opacity:1;fill-rule:nonzero;stroke:none"
             id="path3988" /></g><g
           id="g3990"
           transform="translate(406,67.5)"><path
             d="M 0,0 -20,143.5 0,287 c 0,33.137 -26.863,60 -60,60 h -210 c -33.137,0 -60,-26.863 -60,-60 V 0 c 0,-33.137 26.863,-60 60,-60 h 210 c 33.137,0 60,26.863 60,60"
             style="fill:#fefdca;fill-opacity:1;fill-rule:nonzero;stroke:none"
             id="path3992" /></g><g
           id="g3994"
           transform="translate(376,344.1357)"><path
             d="M 0,0 -30,-306.636 H 0 c 16.542,0 30,13.458 30,30 v 287 C 14.24,10.364 8.414,4.406 0,0"
             style="fill:#f8bd5c;fill-opacity:1;fill-rule:nonzero;stroke:none"
             id="path3996" /></g><g
           id="g3998"
           transform="translate(376,67.5)"><path
             d="M 0,0 V 276.636 C -4.935,274.052 -10.757,272 -20,272 c -25.002,0 -24.998,15 -50,15 -24.999,0 -25.001,-15 -50,-15 -25,0 -25,15 -50,15 -24.998,0 -25.001,-15 -50,-15 -24.998,0 -25.002,15 -50,15 V 0 c 0,-16.542 13.458,-30 30,-30 h 210 c 16.542,0 30,13.458 30,30"
             style="fill:#fbdc6b;fill-opacity:1;fill-rule:nonzero;stroke:none"
             id="path4000" /></g><g
           id="g4002"
           transform="translate(173.5,112.5)"><path
             d="m 0,0 c 0,-4.142 -3.357,-7.5 -7.5,-7.5 -4.143,0 -7.5,3.358 -7.5,7.5 0,4.142 3.357,7.5 7.5,7.5 C -3.357,7.5 0,4.142 0,0"
             style="fill:#000000;fill-opacity:1;fill-rule:nonzero;stroke:none"
             id="path4004" /></g><g
           id="g4006"
           transform="translate(203.5,82.5)"><path
             d="m 0,0 c 0,-4.142 -3.357,-7.5 -7.5,-7.5 -4.143,0 -7.5,3.358 -7.5,7.5 0,4.142 3.357,7.5 7.5,7.5 C -3.357,7.5 0,4.142 0,0"
             style="fill:#000000;fill-opacity:1;fill-rule:nonzero;stroke:none"
             id="path4008" /></g><g
           id="g4010"
           transform="translate(313.5,309.5)"><path
             d="m 0,0 c 0,-4.142 -3.357,-7.5 -7.5,-7.5 -4.143,0 -7.5,3.358 -7.5,7.5 0,4.142 3.357,7.5 7.5,7.5 C -3.357,7.5 0,4.142 0,0"
             style="fill:#000000;fill-opacity:1;fill-rule:nonzero;stroke:none"
             id="path4012" /></g><g
           id="g4014"
           transform="translate(136,414.5)"><path
             d="m 0,0 c -33.137,0 -60,-26.863 -60,-60 v -287 c 0,-33.137 26.863,-60 60,-60 h 240 c 33.137,0 60,26.863 60,60 v 287 c 0,33.137 -26.863,60 -60,60"
             style="fill:none;stroke:#000000;stroke-width:15;stroke-linecap:round;stroke-linejoin:round;stroke-miterlimit:10;stroke-dasharray:none;stroke-opacity:1"
             id="path4016" /></g><g
           id="g4018"
           transform="translate(166,37.5)"><path
             d="m 0,0 h 210 c 16.542,0 30,13.458 30,30 v 287 c -25.002,0 -24.998,-15 -50,-15 -25.002,0 -24.998,15 -50,15 -24.999,0 -25.001,-15 -50,-15 -25,0 -25,15 -50,15 -24.998,0 -25.001,-15 -50,-15 -24.998,0 -25.002,15 -50,15 V 30 C -60,13.458 -46.542,0 -30,0"
             style="fill:none;stroke:#000000;stroke-width:15;stroke-linecap:round;stroke-linejoin:round;stroke-miterlimit:10;stroke-dasharray:none;stroke-opacity:1"
             id="path4020" /></g><g
           id="g4022"
           transform="translate(346,444.5)"><path
             d="M 0,0 V 30"
             style="fill:none;stroke:#000000;stroke-width:15;stroke-linecap:round;stroke-linejoin:round;stroke-miterlimit:10;stroke-dasharray:none;stroke-opacity:1"
             id="path4024" /></g><g
           id="g4026"
           transform="translate(256,474.5)"><path
             d="M 0,0 V -30"
             style="fill:none;stroke:#000000;stroke-width:15;stroke-linecap:round;stroke-linejoin:round;stroke-miterlimit:10;stroke-dasharray:none;stroke-opacity:1"
             id="path4028" /></g><g
           id="g4030"
           transform="translate(316,444.5)"><path
             d="M 0,0 V 30"
             style="fill:none;stroke:#000000;stroke-width:15;stroke-linecap:round;stroke-linejoin:round;stroke-miterlimit:10;stroke-dasharray:none;stroke-opacity:1"
             id="path4032" /></g><g
           id="g4034"
           transform="translate(286,474.5)"><path
             d="M 0,0 V -30"
             style="fill:none;stroke:#000000;stroke-width:15;stroke-linecap:round;stroke-linejoin:round;stroke-miterlimit:10;stroke-dasharray:none;stroke-opacity:1"
             id="path4036" /></g><g
           id="g4038"
           transform="translate(196,474.5)"><path
             d="M 0,0 V -30"
             style="fill:none;stroke:#000000;stroke-width:15;stroke-linecap:round;stroke-linejoin:round;stroke-miterlimit:10;stroke-dasharray:none;stroke-opacity:1"
             id="path4040" /></g><g
           id="g4042"
           transform="translate(226,474.5)"><path
             d="M 0,0 V -30"
             style="fill:none;stroke:#000000;stroke-width:15;stroke-linecap:round;stroke-linejoin:round;stroke-miterlimit:10;stroke-dasharray:none;stroke-opacity:1"
             id="path4044" /></g><g
           id="g4046"
           transform="translate(376,444.5)"><path
             d="m 0,0 v 45 c 0,8.284 -6.716,15 -15,15 h -210 c -8.284,0 -15,-6.716 -15,-15 V 0 c -8.284,0 -15,-6.716 -15,-15 0,-8.284 6.716,-15 15,-15 H 0 c 8.284,0 15,6.716 15,15 C 15,-6.716 8.284,0 0,0 h -210 v 30"
             style="fill:none;stroke:#000000;stroke-width:15;stroke-linecap:round;stroke-linejoin:round;stroke-miterlimit:10;stroke-dasharray:none;stroke-opacity:1"
             id="path4048" /></g></g></g></g></svg>
