<?xml version="1.0" encoding="UTF-8" standalone="no"?>
<!-- Created with Inkscape (http://www.inkscape.org/) -->

<svg
   version="1.1"
   id="svg159"
   xml:space="preserve"
   width="682.66669"
   height="682.66669"
   viewBox="0 0 682.66669 682.66669"
   xmlns="http://www.w3.org/2000/svg"
   xmlns:svg="http://www.w3.org/2000/svg"><defs
     id="defs163"><clipPath
       clipPathUnits="userSpaceOnUse"
       id="clipPath173"><path
         d="M 0,512 H 512 V 0 H 0 Z"
         id="path171" /></clipPath></defs><g
     id="g165"
     transform="matrix(1.3333333,0,0,-1.3333333,0,682.66667)"><g
       id="g167"><g
         id="g169"
         clip-path="url(#clipPath173)"><g
           id="g175"
           transform="translate(369.9663,128)"><path
             d="m 0,0 -130.401,130.218 c -3.7,-8.661 -8.263,-19.66 -13.666,-27.327 L -188.656,39.62 c -20.821,-29.545 0.31,-70.287 36.454,-70.287 h 119.153 c 15.995,0 29.045,7.981 36.825,19.437 z"
             style="fill:#ffd500;fill-opacity:1;fill-rule:nonzero;stroke:none"
             id="path177" /></g><g
           id="g179"
           transform="translate(183.3105,167.6196)"><path
             d="m 0,0 44.588,63.271 c 5.55,7.874 10.215,16.269 13.966,25.031 L 29.989,116.827 H 22.755 C 19.124,97.658 11.44,79.379 0.088,63.271 L -44.5,0 c -20.821,-29.544 0.31,-70.286 36.454,-70.286 h 44.5 C 0.31,-70.286 -20.821,-29.544 0,0"
             style="fill:#eab900;fill-opacity:1;fill-rule:nonzero;stroke:none"
             id="path181" /></g><g
           id="g183"
           transform="translate(309.3652,426)"><path
             d="m 0,0 h -71.924 c -8.596,-2.865 -14.852,-11.522 -14.852,-20.976 v -0.001 c 0,-11.585 9.391,-21.976 20.976,-21.976 3.127,0 5.661,-2.534 5.661,-5.66 v -67.374 c 0,-9.993 -1.133,-19.889 -3.266,-29.542 l 9.254,-9.304 8.455,-1.167 h 37.297 l 7.081,5.845 c -2.852,11.102 -4.343,22.573 -4.343,34.168 v 68.374 c 0,3.126 2.534,5.66 5.661,5.66 11.584,0 20.976,9.391 20.976,20.976 v 0.001 C 20.976,-9.391 11.584,0 0,0"
             style="fill:#b5dcff;fill-opacity:1;fill-rule:nonzero;stroke:none"
             id="path185" /></g><g
           id="g187"
           transform="translate(208.2993,318.3335)"><path
             d="m 0,0 39.3,-39.511 c 2.376,10.172 3.627,20.629 3.627,31.19 v 68.375 c 0,3.125 -2.534,5.66 -5.661,5.66 -11.585,0 -20.976,9.391 -20.976,20.976 v 0 c 0,11.585 9.391,20.977 20.976,20.977 H -5.482 c -11.585,0 -20.976,-9.392 -20.976,-20.977 v 0 c 0,-11.585 9.391,-20.976 20.976,-20.976 3.127,0 5.66,-2.535 5.66,-5.66 l 0,-53.196 z"
             style="fill:#8bcaff;fill-opacity:1;fill-rule:nonzero;stroke:none"
             id="path189" /></g><g
           id="g191"
           transform="translate(373.3711,167.6196)"><path
             d="m 0,0 -44.588,63.271 c -9.641,13.68 -16.619,28.929 -20.736,44.954 -6.701,2.004 -12.488,6.125 -16.578,11.593 -2.381,3.183 -7.177,3.183 -9.557,0 -5.326,-7.12 -13.528,-11.951 -22.882,-12.798 v -4.64 L -2.988,-13.97 H 6.648 C 5.325,-9.177 3.144,-4.461 0,0"
             style="fill:#ffd500;fill-opacity:1;fill-rule:nonzero;stroke:none"
             id="path193" /></g><g
           id="g195"
           transform="translate(224.5893,153.0454)"><path
             d="m 0,0 c 0,-9.757 -7.91,-17.666 -17.667,-17.666 -9.756,0 -17.666,7.909 -17.666,17.666 0,9.757 7.91,17.667 17.666,17.667 C -7.91,17.667 0,9.757 0,0"
             style="fill:#eab900;fill-opacity:1;fill-rule:nonzero;stroke:none"
             id="path197" /></g><g
           id="g199"
           transform="translate(257.2993,239.1948)"><path
             d="m 0,0 h -5.981 c -12.021,-1.943 -21.202,-12.364 -21.202,-24.933 0,-13.951 11.31,-25.262 25.263,-25.262 12.568,0 22.989,9.181 24.932,21.201 v 3.897 z"
             style="fill:#eab900;fill-opacity:1;fill-rule:nonzero;stroke:none"
             id="path201" /></g><g
           id="g203"
           transform="translate(209.687,153.0459)"><path
             d="m 0,0 c 0,5.946 2.947,11.195 7.451,14.396 -2.886,2.052 -6.405,3.27 -10.215,3.27 -9.757,0 -17.666,-7.909 -17.666,-17.666 0,-9.757 7.909,-17.667 17.666,-17.667 3.81,0 7.329,1.219 10.215,3.27 C 2.947,-11.195 0,-5.947 0,0"
             style="fill:#d9ac00;fill-opacity:1;fill-rule:nonzero;stroke:none"
             id="path205" /></g><g
           id="g207"
           transform="translate(250.5469,214.2622)"><path
             d="M 0,0 C 0,8.526 4.231,16.054 10.701,20.627 L 6.752,24.933 H 0.771 C -11.25,22.99 -20.43,12.569 -20.43,0 c 0,-13.952 11.31,-25.262 25.262,-25.262 3.632,0 7.074,0.787 10.194,2.167 C 6.176,-19.167 0,-10.307 0,0"
             style="fill:#d9ac00;fill-opacity:1;fill-rule:nonzero;stroke:none"
             id="path209" /></g><g
           id="g211"
           transform="translate(427.145,120.5283)"><path
             d="m 0,0 c -3.306,-4.163 -9.521,-4.483 -13.28,-0.724 l -293.97,293.97 c -3.759,3.759 -3.439,9.975 0.725,13.28 85.651,68.008 210.566,62.426 289.758,-16.766 C 62.426,210.567 68.008,85.652 0,0 m -35.583,-35.583 c -85.651,-68.007 -210.566,-62.425 -289.759,16.767 -79.192,79.193 -84.774,204.108 -16.766,289.759 3.305,4.163 9.521,4.483 13.28,0.724 L -34.859,-22.302 c 3.759,-3.76 3.44,-9.975 -0.724,-13.281 m -135.471,419.556 c -137.243,0 -248.501,-111.258 -248.501,-248.501 0,-137.243 111.258,-248.501 248.501,-248.501 137.243,0 248.501,111.258 248.501,248.501 0,137.243 -111.258,248.501 -248.501,248.501"
             style="fill:#ff7f87;fill-opacity:1;fill-rule:nonzero;stroke:none"
             id="path213" /></g><g
           id="g215"
           transform="translate(128.0459,79.3022)"><path
             d="m 0,0 c -9.181,6.669 -17.964,14.132 -26.243,22.41 -79.192,79.193 -84.774,204.108 -16.766,289.759 2.69,3.388 7.306,4.23 10.958,2.401 6.484,9.705 13.635,18.924 21.384,27.599 0.327,2.12 1.413,4.132 3.241,5.583 2.426,1.927 4.889,3.787 7.376,5.595 39.708,39.286 92.589,65.273 151.428,70.753 -7.683,0.716 -15.462,1.099 -23.333,1.099 -137.243,0 -248.501,-111.258 -248.501,-248.501 0,-137.243 111.258,-248.501 248.501,-248.501 7.871,0 15.65,0.383 23.333,1.098 C 92.563,-65.226 39.703,-39.259 0,0"
             style="fill:#ff636e;fill-opacity:1;fill-rule:nonzero;stroke:none"
             id="path217" /></g><g
           id="g219"
           transform="translate(427.0542,120.5283)"><path
             d="m 0,0 c -3.306,-4.163 -9.521,-4.483 -13.28,-0.724 l -293.97,293.97 c -3.759,3.759 -3.439,9.975 0.725,13.28 85.651,68.008 210.566,62.426 289.758,-16.766 C 62.426,210.567 68.008,85.652 0,0 Z m -35.583,-35.583 c -85.651,-68.007 -210.566,-62.425 -289.759,16.767 -79.192,79.193 -84.774,204.108 -16.766,289.759 3.305,4.163 9.521,4.483 13.28,0.724 L -34.859,-22.302 c 3.759,-3.76 3.44,-9.975 -0.724,-13.281 z m -135.471,419.556 c -137.243,0 -248.501,-111.258 -248.501,-248.501 0,-137.243 111.258,-248.501 248.501,-248.501 137.243,0 248.501,111.258 248.501,248.501 0,137.243 -111.258,248.501 -248.501,248.501 z"
             style="fill:none;stroke:#000000;stroke-width:15;stroke-linecap:round;stroke-linejoin:round;stroke-miterlimit:10;stroke-dasharray:none;stroke-opacity:1"
             id="path221" /></g><g
           id="g223"
           transform="translate(373.2802,167.6196)"><path
             d="m 0,0 -44.588,63.271 c -9.641,13.68 -16.619,28.929 -20.736,44.954 -6.701,2.004 -12.489,6.125 -16.578,11.593 -2.382,3.183 -7.177,3.183 -9.557,0 -5.326,-7.12 -13.528,-11.951 -22.882,-12.798 L 6.648,-13.97 C 5.325,-9.177 3.144,-4.461 0,0 Z"
             style="fill:none;stroke:#000000;stroke-width:15;stroke-linecap:round;stroke-linejoin:round;stroke-miterlimit:10;stroke-dasharray:none;stroke-opacity:1"
             id="path225" /></g><g
           id="g227"
           transform="translate(224.4985,153.0454)"><path
             d="m 0,0 c 0,-9.757 -7.91,-17.666 -17.667,-17.666 -9.756,0 -17.666,7.909 -17.666,17.666 0,9.757 7.91,17.667 17.666,17.667 C -7.91,17.667 0,9.757 0,0 Z"
             style="fill:none;stroke:#000000;stroke-width:15;stroke-linecap:round;stroke-linejoin:round;stroke-miterlimit:10;stroke-dasharray:none;stroke-opacity:1"
             id="path229" /></g><g
           id="g231"
           transform="translate(251.2265,239.1948)"><path
             d="m 0,0 c -12.02,-1.943 -21.201,-12.364 -21.201,-24.933 0,-13.951 11.31,-25.262 25.263,-25.262 12.568,0 22.989,9.181 24.932,21.201 z"
             style="fill:none;stroke:#000000;stroke-width:15;stroke-linecap:round;stroke-linejoin:round;stroke-miterlimit:10;stroke-dasharray:none;stroke-opacity:1"
             id="path233" /></g><g
           id="g235"
           transform="translate(279.0542,159.8945)"><path
             d="M 0,0 H 1.167"
             style="fill:none;stroke:#000000;stroke-width:15;stroke-linecap:round;stroke-linejoin:round;stroke-miterlimit:10;stroke-dasharray:none;stroke-opacity:1"
             id="path237" /></g><g
           id="g239"
           transform="translate(273.5,97.3335)"><path
             d="m 0,0 h 63.327 c 15.994,0 29.044,7.981 36.824,19.437 L -67.525,187.113 C -71.157,167.944 -78.84,149.666 -90.192,133.557 L -134.78,70.286 C -155.601,40.742 -134.47,0 -98.327,0 H -35"
             style="fill:none;stroke:#000000;stroke-width:15;stroke-linecap:round;stroke-linejoin:round;stroke-miterlimit:10;stroke-dasharray:none;stroke-opacity:1"
             id="path241" /></g><g
           id="g243"
           transform="translate(303.6133,359.4595)"><path
             d="m 0,0 v 18.928 c 0,3.125 2.534,5.66 5.66,5.66 11.585,0 20.977,9.391 20.977,20.976 v 0 c 0,11.585 -9.391,20.977 -20.976,20.977 h -106.548 c -11.585,0 -20.976,-9.392 -20.976,-20.977 v 0 c 0,-11.585 9.391,-20.976 20.976,-20.976 3.126,0 5.66,-2.535 5.66,-5.66 V -34.268 L 76.315,-205.81 c -1.323,4.793 -3.504,9.509 -6.648,13.97 l -44.588,63.271 C 8.76,-105.412 0,-77.776 0,-49.447 V -35"
             style="fill:none;stroke:#000000;stroke-width:15;stroke-linecap:round;stroke-linejoin:round;stroke-miterlimit:10;stroke-dasharray:none;stroke-opacity:1"
             id="path245" /></g></g></g></g></svg>
