<?xml version="1.0" encoding="UTF-8"?>
<svg xmlns="http://www.w3.org/2000/svg" xmlns:xlink="http://www.w3.org/1999/xlink" version="1.1" id="Capa_1" x="0px" y="0px" viewBox="0 0 511.995 511.995" style="enable-background:new 0 0 511.995 511.995;" xml:space="preserve" width="512" height="512">
<g>
	<g>
		<path style="fill:#EBB865;" d="M351.185,15.452C341.522,22.85,327.439,29.323,306.953,33&#10;&#9;&#9;&#9;c-65.392,11.737-119.463,38.568-137.078,124.65c-3.782,18.485-16.564,33.853-33.959,41.161&#10;&#9;&#9;&#9;C98.19,214.66,37.283,250.437,34.081,317.047c-1.8,37.445,14.536,61.111,37.664,74.548l35.079-12.36L385.699,60.569l19.722-36.845&#10;&#9;&#9;&#9;C393.618,6.392,368.917,1.873,351.185,15.452z"/>
		<path style="fill:#FCCC80;" d="M409.36,31.171c-1.058-2.698-2.393-5.177-3.938-7.447v0c-12.102,2.847-37.2,10.744-66.563,31.404&#10;&#9;&#9;&#9;c-41.367,29.107-131.51,133.44-131.51,133.44L91.052,305.141c0,0-23.831,37.69-19.307,86.455c36.616,21.274,90.267,16.9,116,0.887&#10;&#9;&#9;&#9;c31.883-19.838,60.559-65.677,70.814-107.796c5.135-21.093,21.211-37.73,42.067-43.756c24.449-7.064,56.371-22.348,82.693-55.392&#10;&#9;&#9;&#9;C419.807,139.734,430.336,84.639,409.36,31.171z"/>
		<path style="fill:#E79380;" d="M404.027,429.068c-1.002-3.14-2.165-6.204-3.444-9.194l-23.802-47.555l-29.081-6.566&#10;&#9;&#9;&#9;c-5.949-1.418-12.155-1.916-18.408-1.362c-7.031,0.622-13.36,0.541-19.046-0.033l-19.922,31.462l69.5,89.75l42.391-16.356&#10;&#9;&#9;&#9;C407.407,457.425,408.657,443.572,404.027,429.068z"/>
		<path style="fill:#DF7E66;" d="M361.479,460.05c-24.396-16.114-47.176-44.762-51.232-95.693&#10;&#9;&#9;&#9;c-6.067-0.613-11.402-1.789-16.05-3.293c-14.688-4.753-29.88,5.878-29.883,21.316c-0.011,61.427,24.947,94.48,51.872,112.265&#10;&#9;&#9;&#9;c32.836,21.69,72.612,5.037,86.03-25.432C388.953,471.274,374.658,468.755,361.479,460.05z"/>
		<path style="fill:#E79380;" d="M473.506,387.865L473.506,387.865c5.191-11.788,6.441-25.641,1.812-40.145&#10;&#9;&#9;&#9;c-5.67-17.766-16.26-33.262-26.334-45.039c-11.992-14.019-30.025-21.265-48.401-19.639c-7.031,0.622-13.36,0.541-19.046-0.034v0&#10;&#9;&#9;&#9;l-9.962,22.809l51,95.75L473.506,387.865z"/>
		<path style="fill:#DF7E66;" d="M432.769,378.702c-24.395-16.114-47.176-44.762-51.233-95.693&#10;&#9;&#9;&#9;c-6.067-0.613-11.402-1.789-16.05-3.293c-14.687-4.753-29.88,5.879-29.883,21.316c-0.011,61.427,24.947,94.48,51.872,112.265&#10;&#9;&#9;&#9;c32.836,21.69,72.612,5.037,86.03-25.432C460.244,389.927,445.948,387.408,432.769,378.702z"/>
	</g>
	<g>
		<path style="fill:none;stroke:#000000;stroke-width:15;stroke-linecap:round;stroke-linejoin:round;stroke-miterlimit:10;" d="&#10;&#9;&#9;&#9;M448.916,302.682c-11.992-14.019-30.025-21.265-48.401-19.639c-14.534,1.286-26.092-0.413-35.096-3.327&#10;&#9;&#9;&#9;c-14.687-4.753-29.88,5.879-29.883,21.316c-0.011,61.427,24.947,94.48,51.872,112.265c45.54,30.081,104.437-13.583,87.842-65.577&#10;&#9;&#9;&#9;C469.58,329.954,458.99,314.459,448.916,302.682z"/>
		<path style="fill:none;stroke:#000000;stroke-width:15;stroke-linecap:round;stroke-linejoin:round;stroke-miterlimit:10;" d="&#10;&#9;&#9;&#9;M342.458,61.67c0,0-76.154,42.703-136.627,130.588c-16.867,24.513-64.966,40.738-108.336,116.605"/>
		<path style="fill:none;stroke:#000000;stroke-width:15;stroke-linecap:round;stroke-linejoin:round;stroke-miterlimit:10;" d="&#10;&#9;&#9;&#9;M369.212,86.28c0,0-16.158,60.7-107.211,126.178c-14.703,10.573-26.617,24.608-34.427,40.948&#10;&#9;&#9;&#9;c-12.222,25.571-38.257,66.308-88.767,96.032"/>
		<path style="fill:none;stroke:#000000;stroke-width:15;stroke-linecap:round;stroke-linejoin:round;stroke-miterlimit:10;" d="&#10;&#9;&#9;&#9;M286.893,75.991c0,0,39.616,14.92,71.514,67.399"/>
		<path style="fill:none;stroke:#000000;stroke-width:15;stroke-linecap:round;stroke-linejoin:round;stroke-miterlimit:10;" d="&#10;&#9;&#9;&#9;M223.259,139.382c0,0,39.616,14.92,71.515,67.399"/>
		<path style="fill:none;stroke:#000000;stroke-width:15;stroke-linecap:round;stroke-linejoin:round;stroke-miterlimit:10;" d="&#10;&#9;&#9;&#9;M105.691,270.321c0,0,39.616,14.92,71.515,67.399"/>
		<path style="fill:none;stroke:#000000;stroke-width:15;stroke-linecap:round;stroke-linejoin:round;stroke-miterlimit:10;" d="&#10;&#9;&#9;&#9;M133.574,234.497c0,0,43.701,16.459,78.89,74.349"/>
		<path style="fill:none;stroke:#000000;stroke-width:15;stroke-linecap:round;stroke-linejoin:round;stroke-miterlimit:10;" d="&#10;&#9;&#9;&#9;M246.248,100.456c0,0,50.446,18.999,91.065,85.824"/>
		<path style="fill:none;stroke:#000000;stroke-width:15;stroke-linecap:round;stroke-linejoin:round;stroke-miterlimit:10;" d="&#10;&#9;&#9;&#9;M303.378,484.819c4.133,3.704,8.409,6.966,12.739,9.826c45.54,30.081,104.437-13.583,87.842-65.577&#10;&#9;&#9;&#9;c-1.002-3.14-2.165-6.204-3.444-9.194c-4.438-1.579-8.831-3.752-13.108-6.577c-15.305-10.109-29.967-25.161-39.776-47.544&#10;&#9;&#9;&#9;c-5.949-1.418-12.155-1.916-18.408-1.362c-14.533,1.287-26.092-0.412-35.096-3.327c-14.688-4.753-29.88,5.878-29.883,21.316&#10;&#9;&#9;&#9;c-0.006,32.182,6.849,56.565,17.242,75.056"/>
		<path style="fill:none;stroke:#000000;stroke-width:15;stroke-linecap:round;stroke-linejoin:round;stroke-miterlimit:10;" d="&#10;&#9;&#9;&#9;M405.914,149.051c17.131-37.175,19.031-77.979,3.378-117.88c-9.189-23.42-38.201-31.015-58.175-15.719&#10;&#9;&#9;&#9;C341.455,22.85,327.372,29.323,306.885,33c-65.392,11.737-119.464,38.568-137.078,124.65&#10;&#9;&#9;&#9;c-3.783,18.485-16.564,33.853-33.96,41.161C98.122,214.66,37.215,250.437,34.013,317.047&#10;&#9;&#9;&#9;c-4.657,96.855,111.756,101.512,153.665,75.436c31.883-19.838,60.559-65.677,70.814-107.796&#10;&#9;&#9;&#9;c5.135-21.093,21.211-37.73,42.067-43.756c24.449-7.064,56.371-22.348,82.693-55.392c1.67-2.096,3.266-4.218,4.826-6.351"/>
	</g>
</g>















</svg>
