<?xml version="1.0" encoding="iso-8859-1"?>
<!-- Generator: Adobe Illustrator 19.0.0, SVG Export Plug-In . SVG Version: 6.00 Build 0)  -->
<svg version="1.1" id="Capa_1" xmlns="http://www.w3.org/2000/svg" xmlns:xlink="http://www.w3.org/1999/xlink" x="0px" y="0px"
	 viewBox="0 0 512 512" style="enable-background:new 0 0 512 512;" xml:space="preserve">
<g>
	<g>
		<rect x="120" y="272" width="272" height="30"/>
	</g>
</g>
<g>
	<g>
		<rect x="150" width="92" height="152"/>
	</g>
</g>
<g>
	<g>
		<rect x="332" width="30" height="152"/>
	</g>
</g>
<g>
	<g>
		<path d="M120,332v180h272V332H120z M347,452H165c-8.291,0-15-6.709-15-15c0-8.291,6.709-15,15-15h182c8.291,0,15,6.709,15,15
			C362,445.291,355.291,452,347,452z M347,392H165c-8.291,0-15-6.709-15-15c0-8.291,6.709-15,15-15h182c8.291,0,15,6.709,15,15
			C362,385.291,355.291,392,347,392z"/>
	</g>
</g>
<g>
	<g>
		<rect x="272" width="30" height="152"/>
	</g>
</g>
<g>
	<g>
		<path d="M490.027,77.816l-54.843-55.843C423.386,10.175,408.276,3.104,392,0.963V167c0,8.291-6.709,15-15,15
			c-232.751,0-19.739,0-242,0c-8.291,0-15-6.709-15-15V0H45C20.186,0,0,20.186,0,45v422c0,24.814,20.186,45,45,45h45V257
			c0-8.291,6.709-15,15-15h302c8.291,0,15,6.709,15,15v255h45c24.814,0,45-20.186,45-45V131.858
			C512,111.819,504.192,91.981,490.027,77.816z"/>
	</g>
</g>
<g>
</g>
<g>
</g>
<g>
</g>
<g>
</g>
<g>
</g>
<g>
</g>
<g>
</g>
<g>
</g>
<g>
</g>
<g>
</g>
<g>
</g>
<g>
</g>
<g>
</g>
<g>
</g>
<g>
</g>
</svg>
