<?xml version="1.0" encoding="UTF-8" standalone="no"?>
<!-- Created with Inkscape (http://www.inkscape.org/) -->

<svg
   version="1.1"
   id="svg7254"
   xml:space="preserve"
   width="682.66669"
   height="682.66669"
   viewBox="0 0 682.66669 682.66669"
   xmlns="http://www.w3.org/2000/svg"
   xmlns:svg="http://www.w3.org/2000/svg"><defs
     id="defs7258"><clipPath
       clipPathUnits="userSpaceOnUse"
       id="clipPath7268"><path
         d="M 0,512 H 512 V 0 H 0 Z"
         id="path7266" /></clipPath></defs><g
     id="g7260"
     transform="matrix(1.3333333,0,0,-1.3333333,0,682.66667)"><g
       id="g7262"><g
         id="g7264"
         clip-path="url(#clipPath7268)"><g
           id="g7270"
           transform="translate(426.1465,390.3359)"><path
             d="M 0,0 C -0.975,25.614 21.377,48.379 31.728,57.508 34.714,60.142 39.1,60.309 42.277,57.91 53.292,49.594 77.311,28.595 78.286,2.981 79.554,-30.3 62.667,-47.74 41.049,-48.563 19.431,-49.386 1.268,-33.281 0,0"
             style="fill:#f3d69e;fill-opacity:1;fill-rule:nonzero;stroke:none"
             id="path7272" /></g><g
           id="g7274"
           transform="translate(320.9648,339.3345)"><path
             d="m 0,0 c 29.787,-1.065 54.269,-28.937 63.967,-41.722 2.798,-3.688 2.616,-8.789 -0.438,-12.268 -10.587,-12.06 -36.997,-38.113 -66.783,-37.048 -38.703,1.384 -57.478,22.461 -56.579,47.6 C -58.935,-18.298 -38.702,1.384 0,0"
             style="fill:#efcb83;fill-opacity:1;fill-rule:nonzero;stroke:none"
             id="path7276" /></g><g
           id="g7278"
           transform="translate(211.7232,228.6548)"><path
             d="m 0,0 c 0,-29.805 -26.98,-55.267 -39.41,-65.417 -3.586,-2.928 -8.69,-2.928 -12.276,0 -12.43,10.15 -39.41,35.612 -39.41,65.417 0,38.727 20.393,58.243 45.548,58.243 C -20.393,58.243 0,38.727 0,0"
             style="fill:#f3d69e;fill-opacity:1;fill-rule:nonzero;stroke:none"
             id="path7280" /></g><g
           id="g7282"
           transform="translate(489.8789,211.6309)"><path
             d="m 0,0 c 15.958,-25.173 6.804,-61.124 1.739,-76.352 -1.461,-4.392 -5.771,-7.125 -10.367,-6.572 -15.933,1.917 -52.353,8.977 -68.311,34.15 -20.735,32.709 -13.961,60.11 7.285,73.579 C -48.408,38.273 -20.735,32.708 0,0"
             style="fill:#f3d69e;fill-opacity:1;fill-rule:nonzero;stroke:none"
             id="path7284" /></g><g
           id="g7286"
           transform="translate(375.48,421.4004)"><path
             d="m 0,0 c -16.731,-15.576 -45.124,-13.738 -57.317,-12.064 -3.518,0.483 -6.185,3.348 -6.416,6.891 -0.798,12.282 -0.605,40.734 16.127,56.31 21.739,20.238 43.352,18.99 56.498,4.869 C 22.038,41.885 21.739,20.238 0,0"
             style="fill:#dbb56a;fill-opacity:1;fill-rule:nonzero;stroke:none"
             id="path7288" /></g><g
           id="g7290"
           transform="translate(281.2383,114.7798)"><path
             d="m 0,0 c -10.625,23.327 1.413,52.873 7.523,65.247 1.763,3.57 5.757,5.39 9.607,4.377 C 30.477,66.111 60.669,55.802 71.295,32.475 85.101,2.166 76.098,-20.378 56.411,-29.346 36.723,-38.313 13.806,-30.309 0,0"
             style="fill:#dbb56a;fill-opacity:1;fill-rule:nonzero;stroke:none"
             id="path7292" /></g><g
           id="g7294"
           transform="translate(227.6499,93.6167)"><path
             d="m 0,0 c 16.211,-15.021 16.462,-42.528 15.718,-54.404 -0.215,-3.427 -2.787,-6.202 -6.187,-6.677 -11.785,-1.646 -39.231,-3.487 -55.442,11.535 -21.064,19.518 -21.401,40.445 -8.722,54.127 C -41.956,18.263 -21.063,19.518 0,0"
             style="fill:#dbb56a;fill-opacity:1;fill-rule:nonzero;stroke:none"
             id="path7296" /></g><g
           id="g7298"
           transform="translate(442.4146,11.2471)"><path
             d="m 0,0 c -20.668,-7.829 -45.41,4.192 -55.713,10.146 -2.972,1.717 -4.313,5.256 -3.225,8.512 3.773,11.285 14.343,36.681 35.011,44.51 C 2.927,73.34 21.816,64.326 28.424,46.882 35.031,29.439 26.854,10.172 0,0"
             style="fill:#f3d69e;fill-opacity:1;fill-rule:nonzero;stroke:none"
             id="path7300" /></g><g
           id="g7302"
           transform="translate(77.103,464.1167)"><path
             d="m 0,0 c 2.571,-21.951 -15.102,-43.03 -23.381,-51.578 -2.389,-2.465 -6.147,-2.905 -9.04,-1.058 -10.031,6.402 -32.097,22.826 -34.668,44.777 -3.341,28.521 9.994,44.654 28.52,46.824 C -20.043,41.135 -3.341,28.521 0,0"
             style="fill:#f5deb2;fill-opacity:1;fill-rule:nonzero;stroke:none"
             id="path7304" /></g><g
           id="g7306"
           transform="translate(113.6636,84.918)"><path
             d="m 0,0 c -2.425,-25.518 -27.596,-45.122 -39.064,-52.8 -3.308,-2.215 -7.678,-1.799 -10.509,0.999 -9.817,9.701 -30.844,33.696 -28.418,59.214 3.151,33.155 22.198,48.205 43.735,46.158 C -12.72,51.524 3.151,33.156 0,0"
             style="fill:#dbb56a;fill-opacity:1;fill-rule:nonzero;stroke:none"
             id="path7308" /></g><g
           id="g7310"
           transform="translate(79.022,272.6738)"><path
             d="m 0,0 c -21.281,-14.289 -52.395,-7.231 -65.601,-3.221 -3.809,1.157 -6.255,4.801 -5.884,8.765 1.288,13.741 6.534,45.21 27.815,59.498 27.651,18.565 51.362,13.361 63.421,-4.6 C 31.81,42.481 27.651,18.564 0,0"
             style="fill:#dbb56a;fill-opacity:1;fill-rule:nonzero;stroke:none"
             id="path7312" /></g><g
           id="g7314"
           transform="translate(145.9238,433.0459)"><path
             d="m 0,0 c 12.245,24.813 45.167,34.928 59.685,38.271 4.188,0.964 8.437,-1.133 10.22,-5.043 C 76.083,19.671 88.084,-12.611 75.84,-37.424 59.93,-69.666 34.935,-77.536 13.992,-67.201 -6.95,-56.867 -15.91,-32.241 0,0"
             style="fill:#dbb56a;fill-opacity:1;fill-rule:nonzero;stroke:none"
             id="path7316" /></g><g
           id="g7318"
           transform="translate(504.4326,393.3169)"><path
             d="m 0,0 c -0.975,25.614 -24.994,46.613 -36.009,54.928 -3.178,2.399 -7.563,2.232 -10.549,-0.401 -2.43,-2.144 -5.525,-5.047 -8.82,-8.553 C -44.034,35.342 -30.721,18.936 -30,0 c 0.985,-25.869 -9,-42.162 -23.648,-48.524 5.049,-2.228 10.603,-3.241 16.411,-3.02 C -15.619,-50.721 1.268,-33.281 0,0"
             style="fill:#efcb83;fill-opacity:1;fill-rule:nonzero;stroke:none"
             id="path7320" /></g><g
           id="g7322"
           transform="translate(384.9321,297.6123)"><path
             d="M 0,0 C -9.699,12.785 -34.181,40.657 -63.967,41.722 -71.292,41.984 -77.952,41.488 -83.948,40.347 -58.765,34.449 -38.586,11.319 -30,0 c 2.798,-3.688 2.616,-8.789 -0.438,-12.268 -8.758,-9.975 -28.345,-29.51 -51.71,-35.367 4.598,-0.907 9.564,-1.489 14.926,-1.68 29.786,-1.065 56.197,24.987 66.784,37.047 C 2.616,-8.789 2.798,-3.688 0,0"
             style="fill:#edc472;fill-opacity:1;fill-rule:nonzero;stroke:none"
             id="path7324" /></g><g
           id="g7326"
           transform="translate(166.1753,286.8979)"><path
             d="m 0,0 c -5.257,0 -10.301,-0.865 -15,-2.566 17.783,-6.443 30.548,-25.044 30.548,-55.677 0,-23.853 -17.275,-44.915 -30.548,-57.582 3.312,-3.161 6.379,-5.808 8.862,-7.835 3.586,-2.928 8.69,-2.928 12.276,0 12.43,10.149 39.41,35.612 39.41,65.417 C 45.548,-19.517 25.155,0 0,0"
             style="fill:#efcb83;fill-opacity:1;fill-rule:nonzero;stroke:none"
             id="path7328" /></g><g
           id="g7330"
           transform="translate(489.8789,211.6304)"><path
             d="M 0,0 C -18.29,28.852 -41.976,36.574 -61.89,28.752 -50.658,24.433 -39.587,15.123 -30,0 c 15.958,-25.173 6.804,-61.124 1.739,-76.351 -0.308,-0.929 -0.751,-1.777 -1.29,-2.543 8.218,-2.205 15.681,-3.399 20.923,-4.029 4.596,-0.554 8.906,2.179 10.367,6.572 C 6.804,-61.124 15.958,-25.173 0,0"
             style="fill:#efcb83;fill-opacity:1;fill-rule:nonzero;stroke:none"
             id="path7332" /></g><g
           id="g7334"
           transform="translate(385.7676,477.3213)"><path
             d="m 0,0 c -9.676,10.394 -23.903,13.856 -39.406,7.035 3.364,-1.753 6.445,-4.115 9.163,-7.035 13.252,-14.235 12.951,-36.057 -8.964,-56.46 -7.63,-7.103 -17.666,-10.607 -27.507,-12.165 12.309,-1.687 40.897,-3.524 57.75,12.165 C 12.952,-36.057 13.252,-14.235 0,0"
             style="fill:#cba863;fill-opacity:1;fill-rule:nonzero;stroke:none"
             id="path7336" /></g><g
           id="g7338"
           transform="translate(353.6709,144.4951)"><path
             d="m 0,0 c -10.711,23.516 -41.148,33.909 -54.603,37.449 -3.881,1.022 -7.908,-0.812 -9.685,-4.411 -0.361,-0.732 -0.744,-1.527 -1.141,-2.373 13.394,-5.943 28.33,-15.613 35.186,-30.665 13.918,-30.554 4.843,-53.281 -15.005,-62.321 -0.091,-0.042 -0.183,-0.077 -0.275,-0.118 9.957,-4.639 20.641,-4.382 30.518,0.118 C 4.842,-53.281 13.918,-30.554 0,0"
             style="fill:#cba863;fill-opacity:1;fill-rule:nonzero;stroke:none"
             id="path7340" /></g><g
           id="g7342"
           transform="translate(227.6499,93.6167)"><path
             d="M 0,0 C -16.916,15.675 -33.718,17.943 -46.248,11.145 -40.937,8.731 -35.475,5.073 -30,0 c 16.211,-15.021 16.462,-42.528 15.718,-54.404 -0.211,-3.356 -2.688,-6.073 -5.983,-6.63 11.694,-1.948 23.199,-0.968 29.796,-0.047 3.4,0.475 5.972,3.25 6.187,6.677 C 16.462,-42.528 16.211,-15.021 0,0"
             style="fill:#cba863;fill-opacity:1;fill-rule:nonzero;stroke:none"
             id="path7344" /></g><g
           id="g7346"
           transform="translate(470.8384,58.1294)"><path
             d="M 0,0 C -6.185,16.328 -23.132,25.268 -47.298,18.002 -39.066,14.676 -33.142,8.294 -30,0 c 6.607,-17.443 -1.57,-36.71 -28.424,-46.882 -0.301,-0.114 -0.605,-0.21 -0.907,-0.315 9.848,-2.6 20.857,-3.492 30.907,0.315 C -1.57,-36.71 6.607,-17.443 0,0"
             style="fill:#efcb83;fill-opacity:1;fill-rule:nonzero;stroke:none"
             id="path7348" /></g><g
           id="g7350"
           transform="translate(77.103,464.1167)"><path
             d="M 0,0 C -3.341,28.521 -20.043,41.135 -38.569,38.965 -42.632,38.489 -46.445,37.34 -49.888,35.538 -39.792,30.039 -32.144,18.299 -30,0 c 1.913,-16.329 -7.376,-32.171 -15.668,-42.735 4.982,-4.351 9.818,-7.713 13.247,-9.902 2.893,-1.846 6.651,-1.406 9.04,1.059 C -15.102,-43.03 2.571,-21.951 0,0"
             style="fill:#f3d69e;fill-opacity:1;fill-rule:nonzero;stroke:none"
             id="path7352" /></g><g
           id="g7354"
           transform="translate(79.4072,138.4888)"><path
             d="m 0,0 c -6.526,0.621 -12.82,-0.34 -18.517,-2.888 15.36,-6.61 25.33,-23.776 22.773,-50.683 -1.749,-18.408 -15.335,-33.737 -27.075,-43.733 2.787,-3.259 5.402,-5.992 7.502,-8.068 2.832,-2.798 7.201,-3.213 10.509,-0.999 11.469,7.679 36.639,27.283 39.064,52.8 C 37.408,-20.415 21.537,-2.047 0,0"
             style="fill:#cba863;fill-opacity:1;fill-rule:nonzero;stroke:none"
             id="path7356" /></g><g
           id="g7358"
           transform="translate(97.855,331.8623)"><path
             d="M 0,0 C -9.513,14.169 -26.221,20.46 -46.395,13.559 -39.86,10.811 -34.372,6.15 -30.243,0 c 12.157,-18.107 7.964,-42.217 -19.911,-60.932 -5.58,-3.747 -11.833,-6.028 -18.263,-7.296 14.931,-2.341 33.986,-2.453 48.506,7.296 C 7.964,-42.217 12.157,-18.107 0,0"
             style="fill:#cba863;fill-opacity:1;fill-rule:nonzero;stroke:none"
             id="path7360" /></g><g
           id="g7362"
           transform="translate(215.8589,466.0986)"><path
             d="m 0,0 c -1.797,3.942 -6.08,6.056 -10.303,5.083 -4.913,-1.13 -11.92,-3.037 -19.524,-6.008 6.328,-14.158 17.644,-45.826 5.567,-70.299 -8.073,-16.36 -18.467,-26.49 -29.492,-31.193 20.548,-8.541 44.353,0.02 59.735,31.193 C 18.327,-46.21 6.229,-13.667 0,0"
             style="fill:#cba863;fill-opacity:1;fill-rule:nonzero;stroke:none"
             id="path7364" /></g><g
           id="g7366"
           transform="translate(343.9497,253.8477)"><path
             d="m 0,0 c -8.181,-3.626 -17.05,-5.879 -26.239,-5.551 -38.702,1.384 -57.478,22.461 -56.579,47.6 0.899,25.139 21.131,44.822 59.833,43.438 C 6.802,84.422 31.284,56.55 40.982,43.765 43.78,40.077 43.598,34.976 40.544,31.497 37.38,27.893 32.803,23.039 27.145,18.032"
             style="fill:none;stroke:#000000;stroke-width:15;stroke-linecap:round;stroke-linejoin:round;stroke-miterlimit:10;stroke-dasharray:none;stroke-opacity:1"
             id="path7368" /></g><g
           id="g7370"
           transform="translate(426.1465,390.3359)"><path
             d="M 0,0 C -0.975,25.614 21.377,48.379 31.728,57.508 34.714,60.142 39.1,60.309 42.277,57.91 53.292,49.594 77.311,28.595 78.286,2.981 79.554,-30.3 62.667,-47.74 41.049,-48.563 19.431,-49.386 1.268,-33.281 0,0 Z"
             style="fill:none;stroke:#000000;stroke-width:15;stroke-linecap:round;stroke-linejoin:round;stroke-miterlimit:10;stroke-dasharray:none;stroke-opacity:1"
             id="path7372" /></g><g
           id="g7374"
           transform="translate(211.7232,228.6548)"><path
             d="m 0,0 c 0,-29.805 -26.98,-55.267 -39.41,-65.417 -3.586,-2.928 -8.69,-2.928 -12.276,0 -12.43,10.15 -39.41,35.612 -39.41,65.417 0,38.727 20.393,58.243 45.548,58.243 C -20.393,58.243 0,38.727 0,0 Z"
             style="fill:none;stroke:#000000;stroke-width:15;stroke-linecap:round;stroke-linejoin:round;stroke-miterlimit:10;stroke-dasharray:none;stroke-opacity:1"
             id="path7376" /></g><g
           id="g7378"
           transform="translate(489.8789,211.6309)"><path
             d="m 0,0 c 15.958,-25.173 6.804,-61.124 1.739,-76.352 -1.461,-4.392 -5.771,-7.125 -10.367,-6.572 -15.933,1.917 -52.353,8.977 -68.311,34.15 -20.735,32.709 -13.961,60.11 7.285,73.579 C -48.408,38.273 -20.735,32.708 0,0 Z"
             style="fill:none;stroke:#000000;stroke-width:15;stroke-linecap:round;stroke-linejoin:round;stroke-miterlimit:10;stroke-dasharray:none;stroke-opacity:1"
             id="path7380" /></g><g
           id="g7382"
           transform="translate(375.48,421.4004)"><path
             d="m 0,0 c -16.731,-15.576 -45.124,-13.738 -57.317,-12.064 -3.518,0.483 -6.185,3.348 -6.416,6.891 -0.798,12.282 -0.605,40.734 16.127,56.31 21.739,20.238 43.352,18.99 56.498,4.869 C 22.038,41.885 21.739,20.238 0,0 Z"
             style="fill:none;stroke:#000000;stroke-width:15;stroke-linecap:round;stroke-linejoin:round;stroke-miterlimit:10;stroke-dasharray:none;stroke-opacity:1"
             id="path7384" /></g><g
           id="g7386"
           transform="translate(281.2383,114.7798)"><path
             d="m 0,0 c -10.625,23.327 1.413,52.873 7.523,65.247 1.763,3.57 5.757,5.39 9.607,4.377 C 30.477,66.111 60.669,55.802 71.295,32.475 85.101,2.166 76.098,-20.378 56.411,-29.346 36.723,-38.313 13.806,-30.309 0,0 Z"
             style="fill:none;stroke:#000000;stroke-width:15;stroke-linecap:round;stroke-linejoin:round;stroke-miterlimit:10;stroke-dasharray:none;stroke-opacity:1"
             id="path7388" /></g><g
           id="g7390"
           transform="translate(227.6499,93.6167)"><path
             d="m 0,0 c 16.211,-15.021 16.462,-42.528 15.718,-54.404 -0.215,-3.427 -2.787,-6.202 -6.187,-6.677 -11.785,-1.646 -39.231,-3.487 -55.442,11.535 -21.064,19.518 -21.401,40.445 -8.722,54.127 C -41.956,18.263 -21.063,19.518 0,0 Z"
             style="fill:none;stroke:#000000;stroke-width:15;stroke-linecap:round;stroke-linejoin:round;stroke-miterlimit:10;stroke-dasharray:none;stroke-opacity:1"
             id="path7392" /></g><g
           id="g7394"
           transform="translate(442.4146,11.2471)"><path
             d="m 0,0 c -20.668,-7.829 -45.41,4.192 -55.713,10.146 -2.972,1.717 -4.313,5.256 -3.225,8.512 3.773,11.285 14.343,36.681 35.011,44.51 C 2.927,73.34 21.816,64.326 28.424,46.882 35.031,29.439 26.854,10.172 0,0 Z"
             style="fill:none;stroke:#000000;stroke-width:15;stroke-linecap:round;stroke-linejoin:round;stroke-miterlimit:10;stroke-dasharray:none;stroke-opacity:1"
             id="path7396" /></g><g
           id="g7398"
           transform="translate(77.103,464.1167)"><path
             d="m 0,0 c 2.571,-21.951 -15.102,-43.03 -23.381,-51.578 -2.389,-2.465 -6.147,-2.905 -9.04,-1.058 -10.031,6.402 -32.097,22.826 -34.668,44.777 -3.341,28.521 9.994,44.654 28.52,46.824 C -20.043,41.135 -3.341,28.521 0,0 Z"
             style="fill:none;stroke:#000000;stroke-width:15;stroke-linecap:round;stroke-linejoin:round;stroke-miterlimit:10;stroke-dasharray:none;stroke-opacity:1"
             id="path7400" /></g><g
           id="g7402"
           transform="translate(60.8862,135.6113)"><path
             d="m 0,0 c 5.696,2.548 11.994,3.498 18.521,2.877 21.537,-2.046 37.408,-20.415 34.256,-53.57 -2.425,-25.518 -27.595,-45.122 -39.064,-52.8 -3.308,-2.215 -7.677,-1.799 -10.509,0.999 -9.816,9.701 -30.843,33.696 -28.418,59.213 0.758,7.982 2.438,14.914 4.852,20.812"
             style="fill:none;stroke:#000000;stroke-width:15;stroke-linecap:round;stroke-linejoin:round;stroke-miterlimit:10;stroke-dasharray:none;stroke-opacity:1"
             id="path7404" /></g><g
           id="g7406"
           transform="translate(79.022,272.6738)"><path
             d="m 0,0 c -21.281,-14.289 -52.395,-7.231 -65.601,-3.221 -3.809,1.157 -6.255,4.801 -5.884,8.765 1.288,13.741 6.534,45.21 27.815,59.498 27.651,18.565 51.362,13.361 63.421,-4.6 C 31.81,42.481 27.651,18.564 0,0 Z"
             style="fill:none;stroke:#000000;stroke-width:15;stroke-linecap:round;stroke-linejoin:round;stroke-miterlimit:10;stroke-dasharray:none;stroke-opacity:1"
             id="path7408" /></g><g
           id="g7410"
           transform="translate(145.9238,433.0459)"><path
             d="m 0,0 c 12.245,24.813 45.167,34.928 59.685,38.271 4.188,0.964 8.437,-1.133 10.22,-5.043 C 76.083,19.671 88.084,-12.611 75.84,-37.424 59.93,-69.666 34.935,-77.536 13.992,-67.201 -6.95,-56.867 -15.91,-32.241 0,0 Z"
             style="fill:none;stroke:#000000;stroke-width:15;stroke-linecap:round;stroke-linejoin:round;stroke-miterlimit:10;stroke-dasharray:none;stroke-opacity:1"
             id="path7412" /></g></g></g></g></svg>
