<?xml version="1.0" encoding="UTF-8" standalone="no"?>
<!-- Created with Inkscape (http://www.inkscape.org/) -->

<svg
   version="1.1"
   id="svg2715"
   xml:space="preserve"
   width="682.66669"
   height="682.66669"
   viewBox="0 0 682.66669 682.66669"
   xmlns="http://www.w3.org/2000/svg"
   xmlns:svg="http://www.w3.org/2000/svg"><defs
     id="defs2719"><clipPath
       clipPathUnits="userSpaceOnUse"
       id="clipPath2729"><path
         d="M 0,512 H 512 V 0 H 0 Z"
         id="path2727" /></clipPath></defs><g
     id="g2721"
     transform="matrix(1.3333333,0,0,-1.3333333,0,682.66667)"><g
       id="g2723"><g
         id="g2725"
         clip-path="url(#clipPath2729)"><g
           id="g2731"
           transform="translate(256.0913,504.501)"><path
             d="m 0,0 c -137.243,0 -248.501,-111.258 -248.501,-248.501 0,-137.243 111.258,-248.501 248.501,-248.501 137.243,0 248.501,111.258 248.501,248.501 C 248.501,-111.258 137.243,0 0,0"
             style="fill:#6bcb44;fill-opacity:1;fill-rule:nonzero;stroke:none"
             id="path2733" /></g><g
           id="g2735"
           transform="translate(55.3027,256)"><path
             d="m 0,0 c 0,129.195 98.595,235.348 224.645,247.356 -7.853,0.748 -15.808,1.145 -23.856,1.145 C 63.545,248.501 -47.712,137.243 -47.712,0 c 0,-137.243 111.257,-248.501 248.501,-248.501 8.048,0 16.003,0.397 23.856,1.146 C 98.595,-235.348 0,-129.194 0,0"
             style="fill:#4dc321;fill-opacity:1;fill-rule:nonzero;stroke:none"
             id="path2737" /></g><g
           id="g2739"
           transform="translate(265.0971,473.9829)"><path
             d="m 0,0 c -109.153,-12.681 -193.884,-105.427 -193.884,-217.983 0,-112.555 84.731,-205.302 193.884,-217.983 116.32,4.725 209.177,100.502 209.177,217.983 C 209.177,-100.502 116.32,-4.725 0,0"
             style="fill:#dbedff;fill-opacity:1;fill-rule:nonzero;stroke:none"
             id="path2741" /></g><g
           id="g2743"
           transform="translate(72.4087,256)"><path
             d="m 0,0 c 0,114.693 88.498,208.71 200.933,217.505 -5.693,0.446 -11.444,0.678 -17.25,0.678 C 63.184,218.183 -34.5,120.499 -34.5,0 c 0,-120.499 97.684,-218.183 218.183,-218.183 5.806,0 11.557,0.233 17.25,0.678 C 88.498,-208.71 0,-114.692 0,0"
             style="fill:#b5dcff;fill-opacity:1;fill-rule:nonzero;stroke:none"
             id="path2745" /></g><g
           id="g2747"
           transform="translate(490.1284,439.3936)"><path
             d="m 0,0 c -44.367,4.578 -193.064,9.01 -216.545,-133.065 -0.828,-5.013 5.323,-8.093 8.797,-4.387 14.291,15.25 41.983,44.035 82.126,50.881 2.054,0.35 2.988,-2.454 1.14,-3.414 -31.77,-16.494 -78.791,-67.424 -104.527,-195.117 -0.718,-3.56 -5.802,-3.547 -6.519,0.013 -31.433,155.949 -95.031,189.936 -123.214,197.296 -3.533,0.922 -5.831,-3.618 -3.027,-5.956 12.126,-10.109 32.005,-30.593 47.552,-65.649 19.917,-44.912 45.329,-155.111 53.498,-191.771 1.574,-7.063 7.841,-12.081 15.078,-12.081 h 26.747 c 7.238,0 13.504,5.018 15.079,12.081 7.19,32.266 24.204,123.441 42.605,174.988 2.24,6.275 7.88,10.7 14.511,11.356 22.136,2.191 61.87,8.628 79.905,39.245 25.054,42.533 27.249,91.54 68.591,118.043 C 5.062,-5.443 3.859,-0.398 0,0"
             style="fill:#6bcb44;fill-opacity:1;fill-rule:nonzero;stroke:none"
             id="path2749" /></g><g
           id="g2751"
           transform="translate(282.3803,301.9419)"><path
             d="M 0,0 C 4.051,4.323 9.181,9.733 15.363,15.423 37.865,116.217 127.358,136.78 186.997,138.863 128.603,140.893 11.788,128.94 -8.797,4.386 -9.625,-0.626 -3.474,-3.707 0,0"
             style="fill:#4dc321;fill-opacity:1;fill-rule:nonzero;stroke:none"
             id="path2753" /></g><g
           id="g2755"
           transform="translate(251.4097,88.2246)"><path
             d="m 0,0 c -8.169,36.66 -33.581,146.859 -53.499,191.771 -13.604,30.677 -30.526,50.195 -42.668,61.367 -9.247,5.521 -17.464,8.569 -23.856,10.237 -3.533,0.923 -5.831,-3.617 -3.027,-5.955 12.126,-10.109 32.005,-30.593 47.551,-65.649 C -55.581,146.859 -30.169,36.66 -22,0 c 1.574,-7.063 7.841,-12.082 15.078,-12.082 h 22 C 7.841,-12.082 1.574,-7.063 0,0"
             style="fill:#4dc321;fill-opacity:1;fill-rule:nonzero;stroke:none"
             id="path2757" /></g><g
           id="g2759"
           transform="translate(383.3364,355.8291)"><path
             d="m 0,0 c -11.104,-1.15 -18.83,-3.007 -18.83,-3.007 2.054,0.35 2.988,-2.454 1.14,-3.414 -31.77,-16.494 -78.792,-67.423 -104.527,-195.117 -0.147,-0.732 -0.486,-1.304 -0.927,-1.734 l 9.774,0.761 c 5.848,0.455 10.688,4.743 11.837,10.495 C -76.669,-67.484 -25.009,-22.378 2.23,-6.824 5.675,-4.856 3.945,0.409 0,0"
             style="fill:#4dc321;fill-opacity:1;fill-rule:nonzero;stroke:none"
             id="path2761" /></g><g
           id="g2763"
           transform="translate(423.062,439.9517)"><path
             d="m 0,0 c -44.129,40.101 -102.737,64.549 -167.062,64.549 -137.243,0 -248.5,-111.257 -248.5,-248.501 0,-137.243 111.257,-248.501 248.5,-248.501 137.244,0 248.501,111.258 248.501,248.501 0,52.064 -16.025,100.377 -43.392,140.306"
             style="fill:none;stroke:#000000;stroke-width:15;stroke-linecap:round;stroke-linejoin:round;stroke-miterlimit:10;stroke-dasharray:none;stroke-opacity:1"
             id="path2765" /></g><g
           id="g2767"
           transform="translate(238.5005,473.4829)"><path
             d="m 0,0 c -112.315,-8.915 -200.683,-102.875 -200.683,-217.483 0,-120.498 97.684,-218.182 218.183,-218.182 120.499,0 218.183,97.684 218.183,218.182 0,38.656 -10.058,74.961 -27.693,106.449"
             style="fill:none;stroke:#000000;stroke-width:15;stroke-linecap:round;stroke-linejoin:round;stroke-miterlimit:10;stroke-dasharray:none;stroke-opacity:1"
             id="path2769" /></g><g
           id="g2771"
           transform="translate(383.7495,432.8779)"><path
             d="M 0,0 C -31.477,22.773 -69.267,37.354 -110.249,40.608"
             style="fill:none;stroke:#000000;stroke-width:15;stroke-linecap:round;stroke-linejoin:round;stroke-miterlimit:10;stroke-dasharray:none;stroke-opacity:1"
             id="path2773" /></g><g
           id="g2775"
           transform="translate(309.7895,196.3262)"><path
             d="m 0,0 c 5.897,24.372 12.376,48.226 19.038,66.886 2.239,6.275 7.88,10.7 14.511,11.357 22.136,2.191 61.87,8.627 79.904,39.244 25.054,42.534 27.25,91.541 68.592,118.044 3.266,2.093 2.062,7.138 -1.797,7.536 -44.367,4.578 -193.064,9.011 -216.545,-133.065 -0.828,-5.012 5.323,-8.093 8.797,-4.386 14.291,15.25 41.983,44.035 82.126,50.88 2.054,0.35 2.988,-2.454 1.14,-3.414 -31.77,-16.494 -78.792,-67.423 -104.527,-195.117 -0.718,-3.559 -5.801,-3.547 -6.519,0.013 -31.433,155.95 -95.031,189.936 -123.214,197.296 -3.533,0.923 -5.831,-3.618 -3.026,-5.956 12.125,-10.109 32.004,-30.593 47.551,-65.649 19.917,-44.911 45.328,-155.11 53.498,-191.771 1.575,-7.063 7.841,-12.081 15.077,-12.081 h 26.748 c 7.238,0 13.504,5.018 15.079,12.081 3.335,14.969 8.786,42.616 15.506,73.102"
             style="fill:none;stroke:#000000;stroke-width:15;stroke-linecap:round;stroke-linejoin:round;stroke-miterlimit:10;stroke-dasharray:none;stroke-opacity:1"
             id="path2777" /></g></g></g></g></svg>
